<?xml version="1.0" encoding="utf-8"?>
<!-- Generator: Adobe Illustrator 21.1.0, SVG Export Plug-In . SVG Version: 6.00 Build 0)  -->
<svg version="1.1" id="Capa_1" xmlns="http://www.w3.org/2000/svg" xmlns:xlink="http://www.w3.org/1999/xlink" x="0px" y="0px"
	 viewBox="0 0 100 100" style="enable-background:new 0 0 100 100;" xml:space="preserve">
<style type="text/css">
	.st0{fill:none;stroke:url(#SVGID_1_);stroke-width:3;stroke-miterlimit:10;}
	.st1{filter:url(#Adobe_OpacityMaskFilter);}
	.st2{fill:none;stroke:#FFFFFF;stroke-width:5;stroke-miterlimit:10;}
	.st3{fill:none;stroke:#FFFFFF;stroke-width:4;stroke-miterlimit:10;}
	.st4{fill:none;stroke:#FFFFFF;stroke-width:2;stroke-miterlimit:10;}
	.st5{fill:none;stroke:#FFFFFF;stroke-width:3;stroke-miterlimit:10;}
	.st6{mask:url(#SVGID_2_);fill:url(#SVGID_3_);}
</style>
<g>
	<linearGradient id="SVGID_1_" gradientUnits="userSpaceOnUse" x1="14.9982" y1="85.0018" x2="85.0018" y2="14.9982">
		<stop  offset="0" style="stop-color:#79A4E7"/>
		<stop  offset="0.3324" style="stop-color:#7BB8DE"/>
		<stop  offset="1" style="stop-color:#83DDCB"/>
	</linearGradient>
	<circle class="st0" cx="50" cy="50" r="48"/>
	<defs>
		<filter id="Adobe_OpacityMaskFilter" filterUnits="userSpaceOnUse" x="6.8" y="9.7" width="87.9" height="80.6">
			<feColorMatrix  type="matrix" values="1 0 0 0 0  0 1 0 0 0  0 0 1 0 0  0 0 0 1 0"/>
		</filter>
	</defs>
	<mask maskUnits="userSpaceOnUse" x="6.8" y="9.7" width="87.9" height="80.6" id="SVGID_2_">
		<g class="st1">
			<circle class="st2" cx="51.1" cy="52.4" r="9.7"/>
			<circle class="st3" cx="54" cy="23.1" r="6.8"/>
			<circle class="st4" cx="79.5" cy="40.8" r="3.3"/>
			<circle class="st3" cx="24.6" cy="39.7" r="5.2"/>
			<circle class="st4" cx="33.5" cy="71.6" r="4.3"/>
			<circle class="st5" cx="66" cy="78" r="5.2"/>
			<line class="st4" x1="29.7" y1="41.9" x2="42.3" y2="48.4"/>
			<line class="st4" x1="28.3" y1="35.6" x2="48.1" y2="26.3"/>
			<line class="st4" x1="51.1" y1="42.8" x2="53" y2="29.9"/>
			<line class="st4" x1="76.2" y1="42.2" x2="59.9" y2="48.4"/>
			<line class="st4" x1="76.8" y1="38.9" x2="59.9" y2="26.7"/>
			<line class="st4" x1="79.5" y1="44.1" x2="69.4" y2="74.1"/>
			<line class="st4" x1="54.9" y1="61.3" x2="62.6" y2="74.1"/>
			<line class="st4" x1="37.2" y1="73.8" x2="60.8" y2="78"/>
			<line class="st4" x1="31" y1="68.1" x2="24.6" y2="44.8"/>
			<line class="st4" x1="36.6" y1="68.7" x2="45.6" y2="60.4"/>
		</g>
	</mask>
	<linearGradient id="SVGID_3_" gradientUnits="userSpaceOnUse" x1="8.6143" y1="92.1391" x2="92.8926" y2="7.8609">
		<stop  offset="0" style="stop-color:#79A4E7"/>
		<stop  offset="0.3324" style="stop-color:#7BB8DE"/>
		<stop  offset="1" style="stop-color:#83DDCB"/>
	</linearGradient>
	<rect x="6.8" y="9.7" class="st6" width="87.9" height="80.6"/>
</g>
</svg>
