<?xml version="1.0" encoding="utf-8"?>
<!-- Generator: Adobe Illustrator 21.1.0, SVG Export Plug-In . SVG Version: 6.00 Build 0)  -->
<svg version="1.1" id="Capa_1" xmlns="http://www.w3.org/2000/svg" xmlns:xlink="http://www.w3.org/1999/xlink" x="0px" y="0px"
	 viewBox="0 0 50 50" style="enable-background:new 0 0 50 50;" xml:space="preserve">
<style type="text/css">
	.st0{fill:#FEE778;}
</style>
<g>
	<g>
		<g>
			<path class="st0" d="M42.6,1.4H7.3C4.1,1.4,1.5,4,1.5,7.2v23.2c0,3.2,2.6,5.8,5.8,5.8h19.5v11.1c0,0.7,0.5,1.2,0.9,1.4
				c0.2,0,0.2,0,0.5,0c0.5,0,0.7-0.2,1.2-0.5l10.4-12.1h3c3.2,0,5.8-2.6,5.8-5.8V7.1C48.4,3.9,45.8,1.4,42.6,1.4z M45.6,30.3
				c0,1.6-1.4,3-3,3h-3.7c-0.5,0-0.9,0.2-1.2,0.5l-8.3,9.7v-8.8c0-0.7-0.7-1.4-1.4-1.4H7.1c-1.6,0-3-1.4-3-3V7.1c0-1.6,1.4-3,3-3
				h35.5c1.6,0,3,1.4,3,3V30.3L45.6,30.3L45.6,30.3z"/>
			<path class="st0" d="M40.7,10.6H9.2c-0.7,0-1.4,0.7-1.4,1.4s0.7,1.4,1.4,1.4h31.3c0.7,0,1.4-0.7,1.4-1.4
				C42.1,11.3,41.4,10.6,40.7,10.6z"/>
			<path class="st0" d="M40.7,17.3H9.2c-0.7,0-1.4,0.7-1.4,1.4c0,0.7,0.7,1.4,1.4,1.4h31.3c0.7,0,1.4-0.7,1.4-1.4
				S41.4,17.3,40.7,17.3z"/>
			<path class="st0" d="M24,24.1H9.2c-0.7,0-1.4,0.7-1.4,1.4c0,0.7,0.7,1.4,1.4,1.4H24c0.7,0,1.4-0.7,1.4-1.4
				C25.4,24.5,24.9,24.1,24,24.1z"/>
		</g>
	</g>
</g>
</svg>
