<?xml version="1.0" encoding="utf-8"?>
<!-- Generator: Adobe Illustrator 21.1.0, SVG Export Plug-In . SVG Version: 6.00 Build 0)  -->
<svg version="1.1" id="Capa_1" xmlns="http://www.w3.org/2000/svg" xmlns:xlink="http://www.w3.org/1999/xlink" x="0px" y="0px"
	 viewBox="0 0 50 50" style="enable-background:new 0 0 50 50;" xml:space="preserve">
<style type="text/css">
	.st0{fill:#FFFFFF;}
</style>
<g>
	<g>
		<g>
			<path class="st0" d="M48,21.9l-7.4-7.4V5c0-0.7-0.7-1.4-1.4-1.4h-5.7C32.7,3.5,32,4.2,32,5v1.2l-4-4c-1.7-1.7-4.3-1.7-5.9,0
				l-20,20c-1.7,1.7-1.7,4.3,0,5.9c1.2,1.2,2.9,1.4,4.5,1v18.8c0,0.7,0.7,1.4,1.4,1.4h34.3c0.7,0,1.4-0.7,1.4-1.4V29
				c1.4,0.5,3.3,0.2,4.5-1c0.7-0.7,1.2-1.9,1.2-3.1C49.2,23.8,48.7,22.6,48,21.9z M34.9,6.4h2.9v5.2l-2.9-2.9V6.4z M29.2,46.4h-8.6
				V34.7h8.6V46.4z M40.6,46.4H32V33.5c0-0.7-0.7-1.4-1.4-1.4H19.2c-0.7,0-1.4,0.7-1.4,1.4v12.9H8.9V26.6l15.7-15.7l15.7,15.7v19.8
				H40.6z M45.8,25.9c-0.5,0.5-1.4,0.5-1.9,0C43.2,25.2,27.5,9.5,26.1,8.1c-0.5-0.5-1.4-0.5-1.9,0c-1,0.7-17.4,17.1-18.1,17.8
				c-0.5,0.5-1.4,0.5-1.9,0c-0.5-0.5-0.5-1.4,0-1.9l20-20c0.5-0.5,1.4-0.5,1.9,0c1.2,1.2,19.3,19.3,20,20
				C46.3,24.5,46.3,25.2,45.8,25.9z"/>
		</g>
	</g>
	<g>
		<g>
			<path class="st0" d="M24.9,17.8c-3.1,0-5.7,2.6-5.7,5.7s2.6,5.7,5.7,5.7s5.7-2.6,5.7-5.7S28.2,17.8,24.9,17.8z M24.9,26.4
				c-1.7,0-2.9-1.2-2.9-2.9c0-1.7,1.2-2.9,2.9-2.9c1.7,0,2.9,1.2,2.9,2.9C27.7,25.2,26.5,26.4,24.9,26.4z"/>
		</g>
	</g>
</g>
</svg>
