<?xml version="1.0" encoding="utf-8"?>
<!-- Generator: Adobe Illustrator 21.1.0, SVG Export Plug-In . SVG Version: 6.00 Build 0)  -->
<svg version="1.1" id="Capa_1" xmlns="http://www.w3.org/2000/svg" xmlns:xlink="http://www.w3.org/1999/xlink" x="0px" y="0px"
	 viewBox="0 0 50 50" style="enable-background:new 0 0 50 50;" xml:space="preserve">
<style type="text/css">
	.st0{fill:#FFFFFF;}
</style>
<g>
	<path class="st0" d="M24.9,38.8c-3,0-5.4,2.5-5.4,5.4c0,3,2.5,5.4,5.4,5.4s5.4-2.5,5.4-5.4C30.3,41.3,27.8,38.8,24.9,38.8z
		 M24.9,46.5c-1.4,0-2.3-1.1-2.3-2.3c0-1.1,1.1-2.3,2.3-2.3c1.1,0,2.3,1.1,2.3,2.3C27.1,45.4,26.2,46.5,24.9,46.5z"/>
	<path class="st0" d="M30.3,27.7c0-1.8,1.4-3.2,2.3-3.9C36,21.3,38,17.4,38,13.4c0-7.3-5.9-12.9-12.9-12.9S12.2,6.3,12.2,13.4
		c0,3,2.5,5.4,5.4,5.4s5.4-2.5,5.4-5.4c0-1.4,1.1-2.3,2.3-2.3c0.9,0,1.8,0.7,2.3,1.6c0.2,0.9,0,2-0.9,2.5c-4.3,3.2-6.8,7.7-6.8,12.5
		v0.9c0,3,2.5,5.4,5.4,5.4s5.4-2.5,5.4-5.4v-0.9H30.3z M27.1,27.7v0.9c0,1.4-1.1,2.3-2.3,2.3c-1.1,0-2.3-1.1-2.3-2.3v-0.9
		c0-3.9,2-7.5,5.4-10c1.4-1.1,2.3-2.5,2.3-4.3c0-3-2.5-5.4-5.4-5.4s-5.4,2.5-5.4,5.4c0,1.4-1.1,2.3-2.3,2.3c-1.4,0-2.3-1.1-2.3-2.3
		c0-5.4,4.5-10,10-10s10,4.5,10,10c0,3.2-1.6,6.1-4.1,8.2C29.4,22.4,27.1,24.5,27.1,27.7z"/>
</g>
</svg>
