<?xml version="1.0" encoding="utf-8"?>
<!-- Generator: Adobe Illustrator 21.1.0, SVG Export Plug-In . SVG Version: 6.00 Build 0)  -->
<svg version="1.1" id="Capa_1" xmlns="http://www.w3.org/2000/svg" xmlns:xlink="http://www.w3.org/1999/xlink" x="0px" y="0px"
	 viewBox="0 0 50 50" style="enable-background:new 0 0 50 50;" xml:space="preserve">
<style type="text/css">
	.st0{fill:#FFFFFF;}
</style>
<g>
	<g>
		<g>
			<path class="st0" d="M33.2,32.1H31c-0.7,0-1.2-0.5-1.2-0.9c-0.2-0.5,0-1.2,0.5-1.4c4.5-3.8,7.3-11.4,7.3-16.1
				c0-7.1-5.7-12.8-12.8-12.8S12.1,6.5,12.1,13.6c0,4.7,2.8,12.3,7.3,16.1c0.2,0.2,0.5,0.9,0.5,1.4c-0.2,0.5-0.7,0.9-1.2,0.9h-2.1
				c-7.1,0-12.8,5.7-12.8,12.8v2.8c0,0.7,0.7,1.4,1.4,1.4h39.5c0.7,0,1.4-0.7,1.4-1.4v-2.8C45.9,37.8,40.3,32.1,33.2,32.1z
				 M43.1,46.3H6.2v-1.4c0-5.4,4.5-9.9,9.9-9.9h2.1c1.9,0,3.5-1.2,4-3.1c0.5-1.7-0.2-3.3-1.4-4.3c-3.8-3.1-6.2-9.9-6.2-14
				c0-5.4,4.5-9.9,9.9-9.9s9.9,4.5,9.9,9.9c0,4-2.6,10.9-6.2,14c-1.2,0.9-1.7,2.8-1.4,4.3c0.5,1.9,2.1,3.1,4,3.1h2.1
				c5.4,0,9.9,4.5,9.9,9.9V46.3z"/>
		</g>
	</g>
</g>
</svg>
