<?xml version="1.0" encoding="utf-8"?>
<!-- Generator: Adobe Illustrator 21.1.0, SVG Export Plug-In . SVG Version: 6.00 Build 0)  -->
<svg version="1.1" id="Capa_1" xmlns="http://www.w3.org/2000/svg" xmlns:xlink="http://www.w3.org/1999/xlink" x="0px" y="0px"
	 viewBox="0 0 50 50" style="enable-background:new 0 0 50 50;" xml:space="preserve">
<style type="text/css">
	.st0{fill:#FFFFFF;}
</style>
<g>
	<g>
		<g>
			<path class="st0" d="M47.8,21.1l-5.6-1.4c-0.2-0.9-0.7-1.9-1.2-2.8l2.8-4.7c0.2-0.5,0.2-1.2-0.2-1.6l-3.8-4.2
				c-0.5-0.5-1.2-0.5-1.6-0.2l-4.7,2.8c-0.9-0.5-1.9-0.9-2.8-1.2L29.2,2c-0.2-0.7-0.7-1.2-1.4-1.2h-5.6c-0.7,0-1.2,0.5-1.4,1.2
				l-1.4,5.6c-0.9,0.2-1.9,0.7-2.8,1.2L11.8,6c-0.5-0.2-1.2-0.2-1.6,0.2l-4,4c-0.5,0.5-0.5,1.2-0.2,1.6l2.8,4.7
				c-0.5,0.9-0.9,1.9-1.2,2.8l-5.4,1.4c-0.7,0.2-1.2,0.7-1.2,1.4v5.6c0,0.7,0.5,1.2,1.2,1.4l5.4,1.4c0.2,0.9,0.7,1.9,1.2,2.8
				l-2.8,4.7c-0.2,0.5-0.2,1.2,0.2,1.6l4,4c0.5,0.5,1.2,0.5,1.6,0.2l4.7-2.8c0.9,0.5,1.9,0.9,2.8,1.2l1.4,5.4
				c0.2,0.7,0.7,1.2,1.4,1.2h5.6c0.7,0,1.2-0.5,1.4-1.2l1.4-5.4c0.9-0.2,1.9-0.7,2.8-1.2l4.7,2.8c0.5,0.2,1.2,0.2,1.6-0.2l4-4
				c0.5-0.5,0.5-1.2,0.2-1.6l-2.8-4.7c0.5-0.9,0.9-1.9,1.2-2.8l5.6-1.4c0.7-0.2,1.2-0.7,1.2-1.4v-5.6C48.9,21.8,48.5,21.1,47.8,21.1
				z M46.1,26.9l-5.4,1.2c-0.5,0.2-0.9,0.5-0.9,0.9c-0.2,1.4-0.9,2.6-1.6,3.8c-0.2,0.5-0.2,0.9,0,1.4l2.8,4.5l-2.4,2.4l-4.5-2.8
				c-0.5-0.2-0.9-0.2-1.4,0c-1.2,0.7-2.4,1.2-3.8,1.6c-0.5,0.2-0.9,0.5-0.9,0.9l-1.4,5.4h-3.5l-1.2-5.2c-0.2-0.5-0.5-0.9-0.9-0.9
				c-1.4-0.2-2.6-0.9-3.8-1.6c-0.5-0.2-0.9-0.2-1.4,0l-4.5,2.8l-2.4-2.4l2.8-4.5c0.2-0.5,0.2-0.9,0-1.4c-0.7-1.2-1.2-2.4-1.6-3.8
				c-0.2-0.5-0.5-0.9-0.9-0.9l-5.4-1.4v-3.5l5.2-1.2c0.5-0.2,0.9-0.5,0.9-0.9c0.2-1.4,0.9-2.6,1.6-3.8c0.2-0.5,0.2-0.9,0-1.4
				l-2.8-4.5l2.4-2.4l4.5,2.8c0.5,0.2,0.9,0.2,1.4,0c1.2-0.7,2.4-1.2,3.8-1.6c0.5-0.2,0.9-0.5,0.9-0.9l1.2-5.4h3.5l1.2,5.4
				c0.2,0.5,0.5,0.9,0.9,0.9c1.4,0.2,2.6,0.9,3.8,1.6c0.5,0.2,0.9,0.2,1.4,0l4.5-2.8l2.4,2.4l-2.8,4.5c-0.2,0.5-0.2,0.9,0,1.4
				c0.7,1.2,1.2,2.4,1.6,3.8c0.2,0.5,0.5,0.9,0.9,0.9l5.4,1.2v3.5H46.1z"/>
		</g>
	</g>
	<g>
		<g>
			<path class="st0" d="M24.9,15.4c-5.4,0-9.9,4.5-9.9,9.9s4.5,9.9,9.9,9.9s9.9-4.5,9.9-9.9S30.3,15.4,24.9,15.4z M24.9,32.1
				c-3.8,0-7.1-3.1-7.1-7.1s3.1-7.1,7.1-7.1s7.1,3.1,7.1,7.1C31.8,29.1,28.7,32.1,24.9,32.1z"/>
		</g>
	</g>
</g>
</svg>
