<?xml version="1.0" encoding="utf-8"?>
<!-- Generator: Adobe Illustrator 21.1.0, SVG Export Plug-In . SVG Version: 6.00 Build 0)  -->
<svg version="1.1" id="Capa_1" xmlns="http://www.w3.org/2000/svg" xmlns:xlink="http://www.w3.org/1999/xlink" x="0px" y="0px"
	 viewBox="0 0 100 100" style="enable-background:new 0 0 100 100;" xml:space="preserve">
<style type="text/css">
	.st0{fill:#FFFFFF;}
</style>
<g>
	<g>
		<path class="st0" d="M25.7,15.6c-0.1,1.9,0.4,3.6,1.9,4.8c1,0.8,2.1,1.1,3.4,1.1c2.7-0.1,4.2-1.9,4.8-5.9c0.6,0,1.1,0,1.7,0
			c0.6,0,1.2,0,1.8,0c0,2,0.5,3.7,2.1,4.9c1,0.7,2,1,3.2,1c1.5-0.1,2.7-0.7,3.7-1.9c0.9-1.1,1.1-2.5,1.1-3.9c1.3,0,2.5,0,3.7,0
			c-0.1,1.9,0.4,3.5,1.8,4.7c1,0.8,2.1,1.2,3.4,1.1c2.8-0.1,4.4-2,4.8-5.9c0.6,0,1.2,0,1.8,0c0.6,0,1.2,0,1.9,0
			c-0.1,2,0.4,3.8,2.1,5c1,0.7,2.1,1,3.3,0.9c2.6-0.2,4-1.9,4.6-5.7c4.3-1,7.9,0.5,10.2,4.2c1.3,2.2,2,4.6,2.2,7.1
			c0,0.1,0,0.2,0,0.3c0,17.5,0,35.1,0,52.6c0,3.4-1.3,6.5-3.7,9c-1.5,1.6-3.4,2.4-5.7,2.4c-20,0-40,0-60,0c-3.5,0-5.8-1.9-7.4-4.7
			c-1.2-2.1-1.8-4.4-2-6.8c0-0.6,0-1.2,0-1.8c0-16.4,0-32.8,0-49.2c0-3.2,0.6-6.3,2.3-9.1c1.4-2.2,3.3-3.9,6-4.2
			C21.1,15.4,23.4,15.6,25.7,15.6z M49.9,80.6c7.6,0,15.2,0,22.9,0c4,0,6.3-2,6.9-5.9c0.2-1.2,0.3-2.3,0.3-3.5c0-11.4,0-22.9,0-34.3
			c0-1.3-0.1-2.6-0.3-4c-0.5-3.7-2.7-5.5-6.4-5.4c-0.3,0-0.6,0-0.9,0c-15.1,0-30.3,0-45.4,0c-3.3,0-5.4,1.6-6,4.8
			c-0.3,1.5-0.4,3-0.4,4.6c0,11.5,0,23,0,34.4c0,1.2,0.1,2.4,0.2,3.6c0.4,3.9,2.6,5.8,6.5,5.8C34.9,80.6,42.4,80.6,49.9,80.6z"/>
		<path class="st0" d="M74.8,13.9c0,0.8,0,1.6,0,2.5c-0.1,1.6-1.2,2.7-2.7,2.7c-1.5,0.1-2.8-1-2.9-2.6c-0.1-1.8-0.1-3.6,0-5.4
			c0.1-1.5,1.4-2.6,2.9-2.5c1.5,0,2.6,1.1,2.7,2.7C74.8,12.2,74.8,13.1,74.8,13.9z"/>
		<path class="st0" d="M33.3,14.1c0,0.9,0,1.7,0,2.6c-0.1,1.6-1.3,2.7-2.7,2.7c-1.5,0-2.8-1.1-2.8-2.7c-0.1-1.7-0.1-3.4,0-5.1
			c0.1-1.6,1.3-2.7,2.8-2.7c1.5,0,2.7,1.1,2.8,2.7C33.3,12.4,33.3,13.3,33.3,14.1L33.3,14.1z"/>
		<path class="st0" d="M41.9,13.9c0-0.9,0-1.7,0-2.6c0.1-1.5,1.2-2.6,2.7-2.7c1.5,0,2.8,1,2.9,2.6c0.1,1.8,0.1,3.5,0,5.3
			c-0.1,1.5-1.3,2.6-2.9,2.6c-1.5,0-2.6-1.1-2.7-2.7C41.9,15.6,41.9,14.7,41.9,13.9z"/>
		<path class="st0" d="M61,13.9c0,0.9,0,1.7,0,2.6c-0.1,1.6-1.2,2.6-2.7,2.7c-1.5,0-2.8-1-2.9-2.6c-0.1-1.7-0.1-3.5,0-5.2
			c0.1-1.6,1.3-2.7,2.9-2.6c1.5,0,2.6,1.1,2.7,2.7C61,12.2,61,13,61,13.9z"/>
	</g>
	<path class="st0" d="M57.4,53.2c0.3,0.2,0.6,0.4,0.9,0.5c6.6,4,6,11.3,2.4,15.6c-4.8,5.8-16,6.5-21-0.8c-1-1.4-1.8-2.9-1.8-4.6
		c0-2,1.7-3.4,3.7-3c0.9,0.2,1.4,0.7,1.8,1.5c0.6,1.3,1.2,2.6,1.9,3.8c1.4,2.4,3.6,3.2,6.2,2.8c2.7-0.5,4.5-2.1,5.1-4.8
		c0.3-1.3,0.2-2.7-0.1-4c-0.5-2.4-2.5-3.8-4.9-3.9c-1.1-0.1-2.2,0-3.3,0.1c-2.3,0.2-3.8-1.4-3.1-3.4c0.3-1,1.1-1.5,2-1.6
		c1-0.1,2-0.1,3-0.2c3.6-0.2,6-3.5,4.8-6.8c-0.6-1.7-1.8-2.9-3.6-3.1C49,40.9,47,41,45.6,43c-0.6,0.9-1,1.9-1.5,2.9
		c-0.6,1.3-1.6,1.9-3,1.6c-1.3-0.2-2.3-1.3-2.2-2.7c0-0.9,0.2-1.9,0.7-2.7c1.8-3.3,4.7-5,8.3-5.6c2.5-0.4,5-0.3,7.4,0.5
		c6.9,2.4,8,10.2,3.6,14.5C58.5,52.1,58,52.6,57.4,53.2z"/>
</g>
</svg>
