<?xml version="1.0" encoding="utf-8"?>
<!-- Generator: Adobe Illustrator 21.1.0, SVG Export Plug-In . SVG Version: 6.00 Build 0)  -->
<svg version="1.1" id="Capa_1" xmlns="http://www.w3.org/2000/svg" xmlns:xlink="http://www.w3.org/1999/xlink" x="0px" y="0px"
	 viewBox="0 0 100 100" style="enable-background:new 0 0 100 100;" xml:space="preserve">
<style type="text/css">
	.st0{fill:#FFFFFF;}
</style>
<path class="st0" d="M50,19.3c10.9,0,21.7,0,32.6,0c3.7,0,6.4,1.8,7.3,5c0.2,0.8,0.3,1.6,0.3,2.4c0,15.6,0,31.1,0,46.7
	c0,4.4-3,7.4-7.4,7.4c-21.9,0-43.8,0-65.7,0c-4.4,0-7.4-3-7.4-7.4c0-15.5,0-31,0-46.6c0-4.5,2.9-7.4,7.5-7.4
	C28.2,19.3,39.1,19.3,50,19.3z M49.9,23.7c-10.9,0-21.7,0-32.6,0c-0.5,0-1-0.1-1.3,0.1c-0.6,0.3-1.2,0.8-1.5,1.3
	c-0.1,0.2,0.4,0.9,0.7,1.3c9.1,9.1,18.2,18.1,27.3,27.1c4.5,4.5,10.3,4.4,14.8,0c6.5-6.5,13-13,19.5-19.5c2.6-2.6,5.3-5.2,7.9-7.9
	c0.8-0.8,0.8-1.3-0.2-1.9c-0.6-0.3-1.3-0.5-2-0.5C71.6,23.7,60.8,23.7,49.9,23.7z M64.1,53c-0.3,0.3-0.6,0.5-0.8,0.8
	c-1.3,1.3-2.5,2.6-3.8,3.8c-4.2,3.9-9,5.1-14.5,3.2c-2-0.7-3.7-1.9-5.2-3.4c-1.4-1.4-2.8-2.9-4.2-4.4c-0.4,0.4-0.7,0.6-0.9,0.8
	C28.1,60.3,21.6,66.8,15,73.4c-0.8,0.8-0.8,1.4,0.2,2.1c0.4,0.3,1,0.5,1.6,0.5c22,0,44.1,0,66.1,0c0.5,0,1.1-0.2,1.6-0.4
	c1-0.6,1-1.1,0.2-2c-4.4-4.4-8.8-8.8-13.1-13.1C69,57.9,66.6,55.5,64.1,53z M85.4,67.7c0-11.9,0-23.9,0-35.8c-6,6-12,12-17.9,17.9
	C73.4,55.8,79.4,61.7,85.4,67.7z M14.3,32.2c0,11.8,0,23.6,0,35.3c5.9-5.9,11.9-11.9,17.7-17.7C26.1,44,20.2,38.1,14.3,32.2z"/>
</svg>
