<?xml version="1.0" encoding="utf-8"?>
<!-- Generator: Adobe Illustrator 21.1.0, SVG Export Plug-In . SVG Version: 6.00 Build 0)  -->
<svg version="1.1" id="Capa_1" xmlns="http://www.w3.org/2000/svg" xmlns:xlink="http://www.w3.org/1999/xlink" x="0px" y="0px"
	 viewBox="0 0 100 100" style="enable-background:new 0 0 100 100;" xml:space="preserve">
<style type="text/css">
	.st0{fill:#FFFFFF;}
</style>
<g>
	<path class="st0" d="M49.9,83.9c-9.6-14.2-18.7-28.2-25-43.9c-6.6-16.5,4.3-32.7,19-36.1C59.6,0.3,75.2,11.3,77,27.3
		c0.6,5.3-0.9,10.1-2.8,14.9C70.1,52.5,64.4,62,58.5,71.3c-2.5,3.9-5.1,7.6-7.6,11.4C50.6,83.1,50.4,83.4,49.9,83.9z M50,69.9
		c1.6-2.5,3.1-4.8,4.4-7.1c5.1-8.5,10.2-17,13.5-26.4c0.6-1.8,1.2-3.8,1.2-5.7c0.3-10.4-7.7-18.9-18.1-19.5
		c-13.8-0.8-23.5,13.2-19.1,24.7c3.1,8.3,7.3,16,11.8,23.6C45.6,62.9,47.7,66.2,50,69.9z"/>
	<path class="st0" d="M30.5,63.4c0.8,2.6,1.5,5,2.3,7.5c-1.9,0.6-3.8,1.1-5.5,1.8c-2.3,1-4.6,2-6.7,3.4c-3,2.1-3,4,0.1,5.9
		c2.7,1.6,5.6,3,8.5,4c8.2,2.6,16.6,3.1,25.2,2.6c7.4-0.4,14.6-1.4,21.3-4.5c1.7-0.8,3.4-1.9,4.9-3.1c1.7-1.4,1.7-2.8,0-4.1
		c-1.7-1.4-3.7-2.6-5.7-3.5c-2.1-1-4.3-1.6-6.6-2.2c-1-0.3-1.2-0.7-0.9-1.7c0.7-2,1.2-4,1.9-6.3c1.3,0.4,2.4,0.7,3.6,1.1
		c4.9,1.5,9.7,3.3,13.4,7.1c4.5,4.5,4.5,10.6,0,15.2c-3.9,3.9-8.9,5.9-14.1,7.3c-10.5,2.9-21.3,3.5-32.1,2.3
		C33.5,95.5,27,94.4,21,91.5c-2.7-1.3-5.3-3-7.4-5C9.1,82.1,9.2,76,13.7,71.6c1.1-1.1,2.5-2.2,3.8-3C21.4,66,25.8,64.7,30.5,63.4z"
		/>
	<path class="st0" d="M57.9,29.7c0,4.4-3.6,7.9-8,7.9c-4.4,0-7.9-3.6-7.8-8c0-4.4,3.6-7.9,8-7.9C54.5,21.7,57.9,25.2,57.9,29.7z"/>
</g>
</svg>
