<?xml version="1.0" encoding="utf-8"?>
<!-- Generator: Adobe Illustrator 21.1.0, SVG Export Plug-In . SVG Version: 6.00 Build 0)  -->
<svg version="1.1" id="Capa_1" xmlns="http://www.w3.org/2000/svg" xmlns:xlink="http://www.w3.org/1999/xlink" x="0px" y="0px"
	 viewBox="0 0 100 100" style="enable-background:new 0 0 100 100;" xml:space="preserve">
<style type="text/css">
	.st0{fill:#FFFFFF;}
</style>
<g>
	<path class="st0" d="M52.5,91.3c-10.4,0.6-21-2.6-29-9.3C10.1,70.9,5,50.9,11.4,34.8c6.5-16.4,24.3-27.4,42-26
		C68.9,10,83.1,21,88.7,35.4c3.5,9,3.5,18.4,0.4,27.6c-2.5,7.5-7,14.4-13.2,19.4c-1.2,1-2.5,1.9-3.9,2.8
		C66.2,88.9,59.4,90.9,52.5,91.3z M86.3,49.5C86,29.6,69.4,13.2,48.8,13.8c-19.5,0.6-35.7,16.9-35.2,37.3
		C14.1,70.7,30.5,87,51.1,86.4C70.6,85.8,86.6,69.6,86.3,49.5z"/>
	<path class="st0" d="M26.6,34.7c-0.2-1.4,0.5-2.9,1.9-4.2c0.7-0.6,1.3-1.3,1.9-1.9c2.6-2.8,6.6-2.3,9,0.5c1,1.2,1.3,2.6,1.7,4
		c0.4,1.5,0.9,3,1.1,4.5c0.4,1.9-0.2,3.6-1.5,5.1c-0.6,0.6-1.2,1.2-1.8,1.8c-0.2,0.2-0.2,0.5-0.2,0.7c2.3,7.6,7.3,12.8,14.7,15.6
		c1.7,0.7,1.8,0.7,3.1-0.7c1.4-1.6,3.1-2.5,5.2-2.4c0.7,0,1.4,0.2,2.1,0.4c1.6,0.4,3.3,0.9,4.9,1.4c3.2,1,5.8,4.9,3.8,8.7
		c-0.2,0.5-0.6,0.9-1,1.2c-0.9,1-1.9,2-2.9,2.9c-0.8,0.8-1.9,1.1-3,1.1c-3.4,0-6.7-0.4-10-1.3c-7-1.8-13-5.3-18-10.5
		c-3.8-3.9-6.6-8.3-8.6-13.4C27.6,44.1,26.8,39.7,26.6,34.7z"/>
</g>
</svg>
