<?xml version="1.0" encoding="utf-8"?>
<!-- Generator: Adobe Illustrator 21.1.0, SVG Export Plug-In . SVG Version: 6.00 Build 0)  -->
<svg version="1.1" id="Capa_1" xmlns="http://www.w3.org/2000/svg" xmlns:xlink="http://www.w3.org/1999/xlink" x="0px" y="0px"
	 viewBox="0 0 50 50" style="enable-background:new 0 0 50 50;" xml:space="preserve">
<style type="text/css">
	.st0{fill:#FFFFFF;}
</style>
<g>
	<path class="st0" d="M1,5.8v38.3c0,1.8,1.5,3.2,3.2,3.2h22.1c1.8,0,3.2-1.5,3.2-3.2v-9.1c0-0.8-0.7-1.5-1.5-1.5
		c-0.8,0-1.5,0.7-1.5,1.5v9.1c0,0.2-0.1,0.3-0.3,0.3H4.2c-0.2,0-0.3-0.1-0.3-0.3V5.8c0-0.2,0.1-0.3,0.3-0.3h22.1
		c0.2,0,0.3,0.1,0.3,0.3v9.1c0,0.8,0.7,1.5,1.5,1.5c0.8,0,1.5-0.7,1.5-1.5V5.8c0-1.8-1.5-3.2-3.2-3.2H4.2C2.4,2.6,1,4.1,1,5.8z"/>
	<path class="st0" d="M36.4,36.1c0.3,0.3,0.7,0.4,1,0.4c0.4,0,0.8-0.1,1-0.4L48.6,26c0.6-0.6,0.6-1.5,0-2.1L38.5,13.9
		c-0.6-0.6-1.5-0.6-2.1,0s-0.6,1.5,0,2.1l7.6,7.6H16.3c-0.8,0-1.5,0.7-1.5,1.5c0,0.8,0.7,1.5,1.5,1.5H44l-7.6,7.6
		C35.8,34.6,35.8,35.6,36.4,36.1z"/>
</g>
</svg>
