<?xml version="1.0" encoding="utf-8"?>
<!-- Generator: Adobe Illustrator 21.1.0, SVG Export Plug-In . SVG Version: 6.00 Build 0)  -->
<svg version="1.1" id="Capa_1" xmlns="http://www.w3.org/2000/svg" xmlns:xlink="http://www.w3.org/1999/xlink" x="0px" y="0px"
	 viewBox="0 0 100 100" style="enable-background:new 0 0 100 100;" xml:space="preserve">
<style type="text/css">
	.st0{fill:#B5B5B5;}
</style>
<path class="st0" d="M49,32h2c0.7,0,1.3,0.5,1.3,1.3v33.4c0,0.7-0.5,1.3-1.3,1.3h-2c-0.7,0-1.3-0.5-1.3-1.3V33.3
	C47.8,32.6,48.3,32,49,32z"/>
<path class="st0" d="M68,49v2c0,0.7-0.5,1.3-1.3,1.3H33.3c-0.7,0-1.3-0.5-1.3-1.3v-2c0-0.7,0.5-1.3,1.3-1.3h33.4
	C67.4,47.8,68,48.3,68,49z"/>
</svg>
