<?xml version="1.0" encoding="utf-8"?>
<!-- Generator: Adobe Illustrator 21.1.0, SVG Export Plug-In . SVG Version: 6.00 Build 0)  -->
<svg version="1.1" id="Capa_1" xmlns="http://www.w3.org/2000/svg" xmlns:xlink="http://www.w3.org/1999/xlink" x="0px" y="0px"
	 viewBox="0 0 100 100" style="enable-background:new 0 0 100 100;" xml:space="preserve">
<style type="text/css">
	.st0{fill:#FFFFFF;}
	.st1{fill:#050800;}
	.st2{fill:#6DA5B7;}
</style>
<rect class="st0" width="100" height="100"/>
<g>
	<g>
		<path class="st1" d="M25.4,54.1V42.6h1.4v4.2h0c0.6-0.9,1.4-1.3,2.4-1.3c2.2,0,3.5,1.8,3.5,4.2c0,2-0.8,4.7-3.7,4.7
			c-1.4,0-2-0.8-2.3-1.3h0v1H25.4z M29,46.8c-2,0-2.3,2.2-2.3,3.6c0,2.2,1.4,2.8,2.3,2.8c1.5,0,2.3-1.4,2.3-3.2
			C31.3,48.8,31.2,46.8,29,46.8z"/>
		<path class="st1" d="M33.6,48.3c0.1-2,1.4-2.8,3.5-2.8c0.7,0,3.1,0.2,3.1,2.3v4.8c0,0.4,0.2,0.5,0.5,0.5c0.1,0,0.3,0,0.5-0.1v1
			c-0.2,0.1-0.4,0.2-0.8,0.2c-1.2,0-1.4-0.6-1.5-1.3c-0.5,0.6-1.4,1.4-3,1.4c-1.5,0-2.6-1-2.6-2.4c0-0.7,0.2-2.3,2.5-2.6L38,49
			c0.3,0,0.7-0.2,0.7-1c0-0.9-0.6-1.4-2-1.4c-1.6,0-1.8,1-1.9,1.6H33.6z M38.7,49.8c-0.2,0.2-0.6,0.3-2.3,0.5
			c-0.7,0.1-1.8,0.3-1.8,1.4c0,0.9,0.5,1.5,1.5,1.5c1.3,0,2.6-0.8,2.6-2V49.8z"/>
		<path class="st1" d="M48.5,54.1h-1.4v-5.2c0-1.5-0.4-2.2-1.8-2.2c-0.8,0-2.2,0.5-2.2,2.8v4.6h-1.4v-8.4h1.3v1.2h0
			c0.3-0.4,1.1-1.4,2.5-1.4c1.3,0,2.9,0.5,2.9,2.9V54.1z"/>
		<path class="st1" d="M56.8,54.1h-1.3v-1.2h0c-0.6,1.1-1.6,1.4-2.4,1.4c-2.8,0-3.7-2.7-3.7-4.7c0-2.4,1.3-4.2,3.5-4.2
			c1.5,0,2.2,0.9,2.5,1.4h0v-4.3h1.4V54.1z M53.1,53.1c0.9,0,2.3-0.6,2.3-2.8c0-1.4-0.2-3.6-2.3-3.6c-2.2,0-2.3,2.1-2.3,3.1
			C50.8,51.7,51.5,53.1,53.1,53.1z"/>
		<path class="st1" d="M63.8,48.5c-0.2-1.1-0.8-1.8-2-1.8c-1.7,0-2.3,1.7-2.3,3.2c0,1.4,0.4,3.2,2.3,3.2c0.9,0,1.8-0.7,2-2h1.4
			c-0.1,1.3-1,3.2-3.4,3.2c-2.4,0-3.7-1.8-3.7-4.2c0-2.6,1.2-4.7,4-4.7c2.2,0,3,1.6,3.1,3.1H63.8z"/>
		<path class="st1" d="M65.7,48.3c0.1-2,1.4-2.8,3.5-2.8c0.7,0,3.1,0.2,3.1,2.3v4.8c0,0.4,0.2,0.5,0.5,0.5c0.1,0,0.3,0,0.5-0.1v1
			c-0.2,0.1-0.4,0.2-0.8,0.2c-1.2,0-1.4-0.6-1.5-1.3c-0.5,0.6-1.4,1.4-3,1.4c-1.5,0-2.6-1-2.6-2.4c0-0.7,0.2-2.3,2.5-2.6l2.3-0.3
			c0.3,0,0.7-0.2,0.7-1c0-0.9-0.6-1.4-2-1.4c-1.6,0-1.8,1-1.9,1.6H65.7z M70.9,49.8c-0.2,0.2-0.6,0.3-2.3,0.5
			c-0.7,0.1-1.8,0.3-1.8,1.4c0,0.9,0.5,1.5,1.5,1.5c1.3,0,2.6-0.8,2.6-2V49.8z"/>
		<path class="st1" d="M73.9,45.7h1.3v1.2h0c0.3-0.4,1-1.4,2.5-1.4c1.5,0,2,0.9,2.2,1.4c0.7-0.8,1.3-1.4,2.6-1.4
			c0.9,0,2.6,0.5,2.6,2.8v5.8h-1.4v-5.4c0-1.2-0.4-1.9-1.6-1.9c-1.2,0-2,1.1-2,2.2v5.1h-1.4v-5.8c0-0.7-0.3-1.6-1.3-1.6
			c-0.8,0-2.2,0.5-2.2,2.8v4.6h-1.4V45.7z"/>
		<path class="st1" d="M86.3,45.7h1.3v1.2h0c0.3-0.5,1-1.4,2.5-1.4c2.2,0,3.5,1.8,3.5,4.2c0,2-0.8,4.7-3.7,4.7
			c-1.1,0-1.9-0.5-2.2-1.1h0v4.2h-1.4V45.7z M89.9,53.1c1.5,0,2.3-1.4,2.3-3.2c0-1.1-0.1-3.1-2.3-3.1c-2,0-2.3,2.2-2.3,3.6
			C87.6,52.5,89,53.1,89.9,53.1z"/>
	</g>
	<polygon class="st2" points="20,54.1 6.4,54.1 11.7,42.6 25.4,42.6 	"/>
</g>
</svg>
