<?xml version="1.0" encoding="utf-8"?>
<!-- Generator: Adobe Illustrator 21.1.0, SVG Export Plug-In . SVG Version: 6.00 Build 0)  -->
<svg version="1.1" id="Capa_1" xmlns="http://www.w3.org/2000/svg" xmlns:xlink="http://www.w3.org/1999/xlink" x="0px" y="0px"
	 viewBox="0 0 100 100" style="enable-background:new 0 0 100 100;" xml:space="preserve">
<style type="text/css">
	.st0{fill:#59B366;}
	.st1{fill:#FFFFFF;}
	.st2{fill:#EF9830;}
</style>
<rect width="100" height="100"/>
<g>
	<path class="st1" d="M32.4,55.7c-0.9,0-1.8,0-2.7,0c0-0.3,0-0.5,0-0.8c0-2.8,0-5.5,0-8.3c0-0.7,0.2-0.9,0.8-0.8
		c1.4,0.1,2.8,0,4.2,0.1c0.8,0.1,1.7,0.3,2.3,0.7c1.4,0.9,1.5,2.7,0.2,4c-0.5,0.5-0.5,0.8-0.2,1.4c0.4,0.8,0.8,1.6,1.3,2.5
		c0.4-1,0.7-1.9,1-2.7c0.6-1.5,1.1-3,1.7-4.6c0.3-0.9,1-1.3,2-1.4c2.3-0.2,2.3-0.2,3.1,2c0.9,2.6,1.8,5.2,2.7,7.9
		c-0.9,0-1.8,0-2.6,0c-0.1,0-0.3-0.3-0.4-0.5c-0.3-0.7-0.5-1.4-0.7-2.1c-0.1-0.4-0.3-0.5-0.7-0.5c-0.8,0-1.6,0-2.3,0
		c-0.5,0-0.6,0.2-0.8,0.6c-0.2,0.7-0.4,1.4-0.7,2.1c-0.1,0.2-0.4,0.5-0.6,0.5c-1,0.1-2,0-3.1,0c-0.7,0-1.2-0.3-1.5-1
		c-0.4-0.8-0.8-1.7-1.1-2.5c-0.3-0.7-0.2-1.2,0.3-1.7c0.2-0.2,0.4-0.4,0.6-0.7c0.5-0.7,0.5-1.5,0-2.2c-0.5-0.7-1.6-1-2.3-0.6
		c-0.2,0.1-0.4,0.5-0.4,0.8c0,2.3,0,4.6,0,6.9C32.5,55.1,32.4,55.4,32.4,55.7z M42,51c0.8,0,1.6,0,2.4,0c-0.4-1.1-0.7-2.2-1.1-3.3
		c-0.1,0-0.1,0-0.2,0C42.8,48.8,42.4,49.9,42,51z"/>
	<path class="st1" d="M29.1,47.6C28.3,47,27.7,46.4,27,46c-2.2-1.2-4.5-0.2-5.2,2.2c-0.4,1.3-0.4,2.6,0.1,3.9c0.9,2.2,3.2,3,5.2,1.7
		c0.7-0.4,1.3-1,2-1.6c0,1,0,1.9,0,2.9c0,0.1-0.3,0.3-0.5,0.3c-1.9,0.6-3.7,0.9-5.7,0.5c-3.1-0.7-5.1-3.2-4.9-6.2
		c0.2-3.1,2.5-5.6,5.6-6c1.7-0.2,3.4,0,5,0.6c0.2,0.1,0.5,0.5,0.5,0.7C29.1,46,29.1,46.8,29.1,47.6z"/>
	<path class="st1" d="M74.9,44.3c2.3,0,4.6,0,6.9,0c0,0.6,0,1.1,0,1.8c-1.4,0-2.8,0-4.2,0c0,0.9,0,1.7,0,2.7c1.4,0,2.7,0,4,0
		c0.1,0.2,0.1,0.2,0.1,0.3c0.2,1.6,0.2,1.6-1.5,1.6c-0.9,0-1.8,0-2.7,0c0,1.1,0,2.1,0,3.2c1.5,0,2.9,0,4.4,0c0,0.7,0,1.2,0,1.9
		c-0.8,0-1.6,0-2.3,0c-1.4,0-2.9,0-4.3,0c-0.3,0-0.6,0-0.6-0.5c0-3.6,0-7.3,0-10.9C74.8,44.4,74.9,44.4,74.9,44.3z"/>
	<path class="st1" d="M57.5,48.8c-0.3-0.3-0.5-0.5-0.7-0.7c-1-1-2.1-1.4-3.5-1c-1.3,0.3-1.9,1.4-2.2,2.6c-0.1,0.5-0.1,0.9-0.1,1.4
		c0.1,1.4,0.6,2.7,2.1,3.2c1.4,0.6,2.5,0,3.6-1c0.2-0.2,0.4-0.5,0.5-0.7c0.1,0,0.2,0.1,0.2,0.1c0,0.7,0,1.5,0,2.2
		c0,0.2-0.2,0.4-0.3,0.4c-2.1,0.7-4.2,1-6.3,0c-2-1-3-2.9-2.7-5.2c0.3-2.2,1.9-4,4.1-4.6c1.7-0.4,3.3-0.1,4.8,0.4
		c0.2,0.1,0.4,0.3,0.4,0.5C57.6,47.2,57.5,47.9,57.5,48.8z"/>
	<path class="st1" d="M68.4,45.8c0.8,0,1.5,0,2.3,0c0.6,0,0.4,0.4,0.4,0.7c0,2.2,0,4.4,0,6.6c0,0.3,0,0.6,0,0.9c1.1,0,2.1,0,3.1,0
		c0,0.6,0,1,0,1.6c-1.9,0-3.9,0-5.9,0C68.4,52.5,68.4,49.2,68.4,45.8z"/>
	<path class="st1" d="M67.7,45.8c-1.3,1.7-2.5,3.2-3.7,4.7c1.2,1.7,2.4,3.4,3.7,5.2c-1.1,0-2.1,0-3,0c-0.2,0-0.4-0.2-0.5-0.4
		c-0.9-1.2-1.7-2.5-2.5-3.8c-0.4-0.6-0.4-1.2,0.1-1.7c0.9-1.2,1.9-2.5,2.8-3.7c0.1-0.2,0.4-0.4,0.6-0.4
		C65.9,45.8,66.7,45.8,67.7,45.8z"/>
	<path class="st1" d="M61,45.8c0,3.4,0,6.6,0,9.9c-0.9,0-1.7,0-2.7,0c0-0.2-0.1-0.5-0.1-0.7c0-2.8,0-5.6,0-8.4
		c0-0.6,0.1-0.8,0.7-0.8C59.6,45.8,60.2,45.8,61,45.8z"/>
</g>
<g>
	<path class="st2" d="M34.7,63.1c-0.5,0-0.9-0.2-1.2-0.5c-0.3-0.3-0.5-0.7-0.5-1.2c0-0.5,0.2-0.9,0.5-1.2c0.3-0.3,0.7-0.5,1.2-0.5
		c0.4,0,0.7,0.1,1.1,0.4c0.1,0,0.1,0.1,0.1,0.2c0,0.1,0,0.1-0.1,0.2c0,0.1-0.1,0.1-0.2,0.1c-0.1,0-0.1,0-0.2-0.1
		c-0.2-0.2-0.4-0.2-0.7-0.2c-0.3,0-0.6,0.1-0.8,0.3s-0.3,0.5-0.3,0.8c0,0.3,0.1,0.6,0.3,0.8s0.5,0.3,0.8,0.3c0.3,0,0.6-0.1,0.8-0.3
		c0.1-0.1,0.1-0.1,0.2-0.1c0.1,0,0.1,0,0.2,0.1c0.1,0.1,0.1,0.1,0.1,0.2c0,0.1,0,0.1-0.1,0.2C35.5,63,35.2,63.1,34.7,63.1z"/>
	<path class="st2" d="M38.9,60.7c0,0.2-0.1,0.4-0.2,0.6c-0.1,0.2-0.3,0.3-0.5,0.4l0.5,1.1c0,0.1,0,0.1,0,0.2c0,0.1-0.1,0.1-0.1,0.2
		c0,0-0.1,0-0.1,0c-0.1,0-0.2-0.1-0.3-0.2l-0.6-1.3h-0.5v1.2c0,0.1,0,0.1-0.1,0.2c-0.1,0.1-0.1,0.1-0.2,0.1c-0.1,0-0.1,0-0.2-0.1
		c-0.1-0.1-0.1-0.1-0.1-0.2v-2.9c0-0.1,0-0.1,0.1-0.2c0.1-0.1,0.1-0.1,0.2-0.1h1c0.3,0,0.6,0.1,0.8,0.3
		C38.8,60.2,38.9,60.4,38.9,60.7z M37.8,61.1c0.1,0,0.3,0,0.3-0.1c0.1-0.1,0.1-0.2,0.1-0.3c0-0.1,0-0.2-0.1-0.3s-0.2-0.1-0.4-0.1
		h-0.7v0.9H37.8z"/>
	<path class="st2" d="M39.4,63.1c-0.1,0-0.1-0.1-0.2-0.2c0-0.1,0-0.1,0-0.2l0.3-0.7v0l0.9-2.1c0,0,0,0,0,0l0,0c0,0,0,0,0,0
		c0,0,0,0,0,0c0,0,0,0,0,0c0,0,0,0,0,0c0,0,0,0,0,0c0,0,0,0,0,0c0,0,0,0,0,0c0,0,0,0,0,0c0,0,0,0,0,0l0,0c0,0,0,0,0,0c0,0,0,0,0,0
		c0,0,0,0,0,0c0,0,0,0,0,0c0,0,0,0,0,0c0,0,0,0,0,0l0,0c0,0,0,0,0,0l0,0c0,0,0,0,0,0c0,0,0,0,0,0c0,0,0,0,0,0h0l0,0l0,0c0,0,0,0,0,0
		c0,0,0,0,0,0c0,0,0,0,0.1,0c0,0,0,0,0,0s0,0,0,0l0,0c0,0,0,0,0,0c0,0,0,0,0,0c0,0,0,0,0,0c0,0,0,0,0,0c0,0,0,0,0,0l0,0c0,0,0,0,0,0
		c0,0,0,0,0,0c0,0,0,0,0,0c0,0,0,0,0,0l0.9,2.1v0l0.3,0.7c0,0.1,0,0.1,0,0.2c0,0.1-0.1,0.1-0.2,0.2c0,0-0.1,0-0.1,0
		c-0.1,0-0.2-0.1-0.3-0.2l-0.2-0.6H40l-0.2,0.6c0,0.1-0.1,0.2-0.3,0.2C39.5,63.1,39.5,63.1,39.4,63.1C39.5,63.1,39.5,63.1,39.4,63.1
		z M41.2,61.8l-0.5-1.1l-0.5,1.1H41.2z"/>
	<path class="st2" d="M44.3,63.1c-0.5,0-0.9-0.2-1.2-0.5c-0.3-0.3-0.5-0.7-0.5-1.2c0-0.5,0.2-0.9,0.5-1.2c0.3-0.3,0.7-0.5,1.2-0.5
		c0.4,0,0.7,0.1,1.1,0.4c0.1,0,0.1,0.1,0.1,0.2c0,0.1,0,0.1-0.1,0.2c0,0.1-0.1,0.1-0.2,0.1c-0.1,0-0.1,0-0.2-0.1
		c-0.2-0.2-0.4-0.2-0.7-0.2c-0.3,0-0.6,0.1-0.8,0.3s-0.3,0.5-0.3,0.8c0,0.3,0.1,0.6,0.3,0.8s0.5,0.3,0.8,0.3c0.3,0,0.6-0.1,0.8-0.3
		c0.1-0.1,0.1-0.1,0.2-0.1c0.1,0,0.1,0,0.2,0.1c0.1,0.1,0.1,0.1,0.1,0.2c0,0.1,0,0.1-0.1,0.2C45.1,63,44.7,63.1,44.3,63.1z"/>
	<path class="st2" d="M46.3,63.1c-0.1,0-0.1,0-0.2-0.1c-0.1-0.1-0.1-0.1-0.1-0.2V60c0-0.1,0-0.1,0.1-0.2c0.1-0.1,0.1-0.1,0.2-0.1
		c0.1,0,0.1,0,0.2,0.1c0.1,0.1,0.1,0.1,0.1,0.2v1.3l1.4-1.4c0.1-0.1,0.1-0.1,0.2-0.1c0.1,0,0.1,0,0.2,0.1c0.1,0.1,0.1,0.1,0.1,0.2
		c0,0.1,0,0.1-0.1,0.2l-1.2,1.2l1.2,1.3c0.1,0.1,0.1,0.1,0.1,0.2c0,0.1,0,0.1-0.1,0.2c-0.1,0.1-0.1,0.1-0.2,0.1
		c-0.1,0-0.1,0-0.2-0.1l-1.2-1.2L46.6,62v0.8c0,0.1,0,0.1-0.1,0.2C46.5,63.1,46.4,63.1,46.3,63.1z"/>
	<path class="st2" d="M49.4,59.7c0.1,0,0.1,0,0.2,0.1c0.1,0.1,0.1,0.1,0.1,0.2v2.6h1.3c0.1,0,0.1,0,0.2,0.1c0.1,0.1,0.1,0.1,0.1,0.2
		c0,0.1,0,0.1-0.1,0.2c-0.1,0.1-0.1,0.1-0.2,0.1h-1.6c-0.1,0-0.1,0-0.2-0.1c-0.1-0.1-0.1-0.1-0.1-0.2V60c0-0.1,0-0.1,0.1-0.2
		C49.2,59.7,49.3,59.7,49.4,59.7z"/>
	<path class="st2" d="M53.7,62.6c0.1,0,0.1,0,0.2,0.1c0.1,0.1,0.1,0.1,0.1,0.2c0,0.1,0,0.1-0.1,0.2c-0.1,0.1-0.1,0.1-0.2,0.1h-1.7
		c-0.1,0-0.1,0-0.2-0.1c-0.1-0.1-0.1-0.1-0.1-0.2v-2.9c0-0.1,0-0.1,0.1-0.2c0.1-0.1,0.1-0.1,0.2-0.1h0l1.7,0c0.1,0,0.1,0,0.2,0.1
		C54,59.8,54,59.9,54,60c0,0.1,0,0.1-0.1,0.2c-0.1,0.1-0.1,0.1-0.2,0.1h0l-1.5,0v0.9h1.1c0.1,0,0.1,0,0.2,0.1
		c0.1,0.1,0.1,0.1,0.1,0.2c0,0.1,0,0.1-0.1,0.2c-0.1,0.1-0.1,0.1-0.2,0.1h-1.1v0.9H53.7z"/>
	<path class="st2" d="M55.1,62.5c0.1,0,0.1,0,0.2,0.1c0.1,0.1,0.1,0.1,0.1,0.2c0,0.1,0,0.1-0.1,0.2c-0.1,0.1-0.1,0.1-0.2,0.1
		c-0.1,0-0.1,0-0.2-0.1c-0.1-0.1-0.1-0.1-0.1-0.2c0-0.1,0-0.1,0.1-0.2C54.9,62.6,55,62.5,55.1,62.5z"/>
	<path class="st2" d="M57.8,63.1c-0.5,0-0.9-0.2-1.2-0.5c-0.3-0.3-0.5-0.7-0.5-1.2c0-0.5,0.2-0.9,0.5-1.2c0.3-0.3,0.7-0.5,1.2-0.5
		c0.4,0,0.7,0.1,1.1,0.4c0.1,0,0.1,0.1,0.1,0.2c0,0.1,0,0.1-0.1,0.2c0,0.1-0.1,0.1-0.2,0.1c-0.1,0-0.1,0-0.2-0.1
		c-0.2-0.2-0.4-0.2-0.7-0.2c-0.3,0-0.6,0.1-0.8,0.3s-0.3,0.5-0.3,0.8c0,0.3,0.1,0.6,0.3,0.8s0.5,0.3,0.8,0.3c0.3,0,0.6-0.1,0.8-0.3
		c0.1-0.1,0.1-0.1,0.2-0.1c0.1,0,0.1,0,0.2,0.1c0.1,0.1,0.1,0.1,0.1,0.2c0,0.1,0,0.1-0.1,0.2C58.6,63,58.3,63.1,57.8,63.1z"/>
	<path class="st2" d="M61.1,63.1c-0.5,0-0.9-0.2-1.2-0.5c-0.3-0.3-0.5-0.7-0.5-1.2s0.2-0.9,0.5-1.2c0.3-0.3,0.7-0.5,1.2-0.5
		c0.5,0,0.9,0.2,1.2,0.5c0.3,0.3,0.5,0.7,0.5,1.2s-0.2,0.9-0.5,1.2C62,63,61.6,63.1,61.1,63.1z M61.1,60.2c-0.3,0-0.6,0.1-0.8,0.3
		c-0.2,0.2-0.3,0.5-0.3,0.8c0,0.3,0.1,0.6,0.3,0.8c0.2,0.2,0.5,0.3,0.8,0.3c0.3,0,0.6-0.1,0.8-0.3c0.2-0.2,0.3-0.5,0.3-0.8
		c0-0.3-0.1-0.6-0.3-0.8C61.7,60.3,61.5,60.2,61.1,60.2z"/>
	<path class="st2" d="M66.8,59.7c0.1,0,0.1,0.1,0.1,0.1c0,0,0.1,0.1,0.1,0.2v2.9c0,0.1,0,0.1-0.1,0.2c-0.1,0.1-0.1,0.1-0.2,0.1
		s-0.1,0-0.2-0.1c-0.1-0.1-0.1-0.1-0.1-0.2V61l-0.9,1.5v0l0,0l0,0l0,0c0,0,0,0,0,0l0,0c0,0,0,0,0,0c0,0,0,0,0,0s0,0,0,0c0,0,0,0,0,0
		l0,0c0,0,0,0,0,0c0,0,0,0,0,0l0,0h0c0,0,0,0,0,0c0,0,0,0,0,0c0,0,0,0,0,0c0,0-0.1,0-0.1,0h0c0,0,0,0,0,0c0,0,0,0-0.1,0c0,0,0,0,0,0
		c0,0,0,0,0,0c0,0,0,0,0,0c0,0,0,0,0,0c0,0,0,0,0,0h0l0,0l0,0c0,0,0,0,0,0c0,0,0,0,0,0c0,0,0,0,0,0c0,0,0,0,0,0c0,0,0,0,0,0
		c0,0,0,0,0,0c0,0,0,0,0,0c0,0,0,0,0,0l0,0c0,0,0,0,0,0v0c0,0,0,0,0,0L64.2,61v1.9c0,0.1,0,0.1-0.1,0.2c-0.1,0.1-0.1,0.1-0.2,0.1
		c-0.1,0-0.1,0-0.2-0.1c-0.1-0.1-0.1-0.1-0.1-0.2v-2.9c0-0.1,0-0.1,0.1-0.2c0-0.1,0.1-0.1,0.2-0.1c0.1,0,0.1,0,0.2,0
		c0.1,0,0.1,0.1,0.1,0.1l1.2,2l1.2-2c0-0.1,0.1-0.1,0.1-0.1C66.7,59.7,66.7,59.6,66.8,59.7C66.7,59.6,66.7,59.7,66.8,59.7z"/>
</g>
</svg>
