<?xml version="1.0" encoding="utf-8"?>
<!-- Generator: Adobe Illustrator 21.1.0, SVG Export Plug-In . SVG Version: 6.00 Build 0)  -->
<svg version="1.1" id="Capa_1" xmlns="http://www.w3.org/2000/svg" xmlns:xlink="http://www.w3.org/1999/xlink" x="0px" y="0px"
	 viewBox="0 0 100 100" style="enable-background:new 0 0 100 100;" xml:space="preserve">
<style type="text/css">
	.st0{fill:#59B366;}
	.st1{opacity:0.95;fill:url(#XMLID_3_);}
	.st2{fill:#E72F3C;}
	.st3{fill:#FFFFFF;}
	.st4{fill:#FBDDE2;}
	.st5{fill:#F5B4C3;}
</style>
<linearGradient id="XMLID_3_" gradientUnits="userSpaceOnUse" x1="-6.9033" y1="-7.0768" x2="103.6179" y2="103.4444" gradientTransform="matrix(1 0 0 -1 0 100)">
	<stop  offset="4.926108e-03" style="stop-color:#E51B40"/>
	<stop  offset="3.217822e-02" style="stop-color:#E51C40"/>
	<stop  offset="0.3842" style="stop-color:#E72F3C"/>
	<stop  offset="0.8374" style="stop-color:#E94F2D"/>
</linearGradient>
<path id="XMLID_10_" class="st1" d="M106.5,61.2c0-19.2,0.1-38.4,0.1-57.6c0-6.2-2.5-8.7-8.9-8.7C66.2-5.1,34.8-5,3.4-5.2
	c-4.4,0-7.7,1-10,4.8c0,15.2,0,30.4,0,45.6c0,18.2,0,36.5,0,54.7c0.9,2.4,2.4,4.2,4.8,5.3c34.6,0,69.4,0,104,0
	c2.2-1.7,4.2-3.7,4.2-6.8C106.5,85.9,106.5,73.6,106.5,61.2z"/>
<g>
	<path id="XMLID_93_" class="st2" d="M62.9,30.1c0-0.5,0-1,0-1.5C63.2,29.1,63.2,29.6,62.9,30.1z"/>
	<g id="XMLID_14_">
		<path id="XMLID_8_" class="st3" d="M65.2,33.8v-5.3c0-0.5-0.1-1-0.3-1.5c-0.5-1-1.6-2.2-3.9-1.3l-11,8.3l7.6,5.8L65.2,33.8z"/>
		<g id="XMLID_7_">
			<polygon id="XMLID_13_" class="st4" points="65,33.8 57.6,39.9 50,34 42.4,39.9 34.8,33.8 34.8,45.9 42.4,40.1 50.1,45.9 
				57.5,40.1 65,45.9 			"/>
			<path id="XMLID_2_" class="st3" d="M34.8,33.8v-5.3c0-0.5,0.1-1,0.3-1.5c0.5-1,1.6-2.2,3.9-1.3l11,8.3l-7.6,5.8L34.8,33.8z"/>
			<path id="XMLID_12_" class="st5" d="M34.8,45.9v5.9c0,0.1,0,0.2,0,0.3c0.2,0.6,1.4,3.3,4.4,2.1L50,45.8L42.4,40L34.8,45.9z"/>
		</g>
		<path id="XMLID_11_" class="st5" d="M65,45.9V52c0,0.4-0.1,0.9-0.4,1.2c-0.5,0.8-1.7,1.7-4,0.8l-10.6-8.2l7.4-5.7L65,45.9z"/>
	</g>
	<g>
		<path id="XMLID_102_" class="st3" d="M34,72.2c0.7,0.5,1.5,0.9,2.3,0.9c0.2,0,0.4,0,0.6-0.1c0.2-0.1,0.4-0.3,0.4-0.5
			c0-0.3-0.2-0.3-0.4-0.4c-0.4-0.2-0.9-0.2-1.4-0.3c-0.3-0.1-0.7-0.2-1-0.3c-1.3-0.6-1.4-2.2-0.3-3.1c0.8-0.6,1.8-0.6,2.7-0.5
			c0.5,0.1,1,0.3,1.5,0.6c0.2,0.1,0.3,0.3,0.1,0.5c-0.2,0.3-0.3,0.6-0.5,0.9c-0.6-0.5-1.3-0.8-2-0.7c-0.2,0-0.3,0-0.4,0.1
			c-0.2,0.1-0.4,0.2-0.4,0.5s0.2,0.4,0.4,0.4c0.5,0.1,1,0.2,1.5,0.4c0.6,0.2,1.2,0.4,1.6,1c0.6,1,0.2,2.3-1,2.8
			c-1.5,0.6-2.9,0.4-4.2-0.5c-0.2-0.1-0.3-0.3-0.1-0.5C33.7,72.9,33.8,72.6,34,72.2z"/>
		<path id="XMLID_101_" class="st3" d="M42.3,67.9c0.1,0,0.1,0,0.2,0c0.6,0,1.2-0.2,1.7,0.1c0.4,0.2,0.7,0.8,1,1.3
			c0.1,0.2,0.3,0.4,0.4,0.6c0.4-0.6,0.8-1.1,1.1-1.7c0.1-0.2,0.3-0.3,0.5-0.3c0.5,0,1,0,1.5,0c0.1,0.2-0.1,0.3-0.2,0.4
			c-0.5,0.8-1.1,1.6-1.7,2.4c-0.2,0.2-0.2,0.4,0,0.7c0.7,1,1.4,1.9,2.1,3c-0.6,0-1.2,0-1.8,0c-0.2,0-0.2-0.1-0.3-0.2
			c-0.4-0.6-0.9-1.2-1.3-1.9c-0.4,0.6-0.8,1.1-1.2,1.7c-0.2,0.3-0.5,0.5-0.9,0.4s-0.8,0-1.2,0c-0.1-0.2,0.1-0.2,0.1-0.3
			c0.6-0.9,1.2-1.8,1.9-2.7c0.2-0.3,0.2-0.4,0-0.7C43.6,69.8,43,68.8,42.3,67.9z"/>
		<path id="XMLID_100_" class="st3" d="M75.2,67.7c0.7,0,1.5,0.2,2.1,0.9c0.2,0.2,0.3,0.3,0,0.5c-0.1,0.1-0.2,0.1-0.2,0.2
			c-0.2,0.2-0.3,0.4-0.6,0.5c-0.3,0.1-0.3-0.3-0.6-0.4c-0.6-0.3-1.2-0.3-1.7,0c-0.6,0.3-0.9,0.9-0.9,1.6c0,0.7,0.3,1.4,1,1.7
			c0.7,0.3,1.4,0.2,2-0.4c0.2-0.2,0.2-0.1,0.3,0c0.2,0.2,0.3,0.3,0.5,0.5c0.4,0.4,0.5,0.4,0,0.8c-1.1,0.9-2.3,1-3.6,0.4
			c-1.2-0.5-1.9-1.5-1.9-2.8C71.5,69.2,72.9,67.7,75.2,67.7z"/>
		<path id="XMLID_99_" class="st3" d="M69.8,67c0,0.9,0,0.9,0.9,0.9c0.4,0,0.5,0.1,0.4,0.4c0,0.3,0.1,0.8-0.1,1
			c-0.2,0.2-0.6,0.1-0.9,0.1c-0.3,0-0.3,0.1-0.3,0.3c0,0.9,0,1.7,0,2.5c0,0.6,0.3,0.9,0.9,0.7c0.2-0.1,0.3-0.1,0.3,0.1
			s0.1,0.4,0.2,0.6c0.1,0.5,0.1,0.6-0.4,0.7c-0.5,0.1-0.9,0.2-1.4,0.1c-0.8-0.1-1.2-0.7-1.3-1.5c0-1,0-2.1,0-3.2
			c0-0.3-0.1-0.4-0.4-0.4c-0.7,0-0.7,0-0.7-0.7c0,0,0,0,0,0c0-0.8,0-0.8,0.7-0.8c0.3,0,0.3-0.1,0.3-0.3c0-0.4,0-0.7,0-1.1
			c0-0.3,0.1-0.3,0.3-0.3c0.3,0,0.7,0,1,0c0.3,0,0.4,0.1,0.4,0.4C69.8,66.7,69.8,66.8,69.8,67z"/>
		<path id="XMLID_97_" class="st3" d="M39.5,66.2c0-0.6,0.5-1,1-1c0.5,0,1,0.5,1,1s-0.5,1-1,1C40,67.2,39.5,66.8,39.5,66.2z"/>
		<path id="XMLID_20_" class="st3" d="M25.3,69.2c-0.1-0.8-0.7-1.3-1.5-1.4c-1-0.1-1.9,0.3-2.6,1.1c-0.2-0.5-0.6-0.9-1.1-1
			c-1.1-0.3-2,0.1-2.8,0.8c0-0.8,0-0.8-0.8-0.8c-0.2,0-0.4,0-0.6,0c-0.3,0-0.4,0.1-0.4,0.4c0,1.3,0,2.6,0,3.9l0,0v0.9v1v0.2h1.7
			v-0.3c0,0,0-0.1,0-0.1c0-0.3,0-0.5,0-0.8v-1l0,0c0-0.6,0-1.2,0-1.8c0-0.3,0.1-0.5,0.3-0.7c0.4-0.3,0.9-0.5,1.5-0.3
			c0.5,0.2,0.5,0.7,0.5,1.2c0,0.5,0,1.1,0,1.6l0,0v1.2c0,0.2,0,0.4,0,0.5c0,0,0,0.1,0,0.1v0.3h1.7v-0.3c0,0,0-0.1,0-0.1
			c0-0.3,0-0.5,0-0.7v-1l0,0c0-0.6,0-1.1,0-1.7c0-0.7,0.5-1.2,1.2-1.2c0.7,0,1.1,0.3,1.1,1c0,0.9,0,1.8,0,2.7V73v1.1v0.3h1.7v-2.2
			l0,0C25.3,71.2,25.4,70.2,25.3,69.2z"/>
		<path id="XMLID_24_" class="st3" d="M59.4,69.2c-0.1-0.8-0.7-1.3-1.5-1.4c-1-0.1-1.9,0.3-2.6,1.1c-0.2-0.5-0.6-0.9-1.1-1
			c-1.1-0.3-2,0.1-2.8,0.8c0-0.8,0-0.8-0.8-0.8c-0.2,0-0.4,0-0.6,0c-0.3,0-0.4,0.1-0.4,0.4c0,1.3,0,2.6,0,3.9l0,0v0.9v1v0.2h1.7
			v-0.3c0,0,0-0.1,0-0.1c0-0.3,0-0.5,0-0.8v-1l0,0c0-0.6,0-1.2,0-1.8c0-0.3,0.1-0.5,0.3-0.7c0.4-0.3,0.9-0.5,1.5-0.3
			c0.5,0.2,0.5,0.7,0.5,1.2c0,0.5,0,1.1,0,1.6l0,0v1.2c0,0.2,0,0.4,0,0.5c0,0,0,0.1,0,0.1v0.3h1.7v-0.3c0,0,0-0.1,0-0.1
			c0-0.3,0-0.5,0-0.7v-1l0,0c0-0.6,0-1.1,0-1.7c0-0.7,0.5-1.2,1.2-1.2c0.7,0,1.1,0.3,1.1,1c0,0.9,0,1.8,0,2.7V73v1.1v0.3h1.7v-2.2
			l0,0C59.4,71.2,59.5,70.2,59.4,69.2z"/>
		<g id="XMLID_9_">
			<path id="XMLID_36_" class="st3" d="M30.8,73.5C30.8,73.5,30.8,73.5,30.8,73.5v0.3v0C30.8,73.7,30.8,73.7,30.8,73.5z"/>
			<path id="XMLID_30_" class="st3" d="M32.4,68c-0.3-0.3-0.8-0.1-1.3-0.1c-0.3,0-0.4,0.1-0.4,0.4c0,1.1,0,2.2,0,3.3
				c0,1-0.5,1.5-1.5,1.5c-0.8,0-1.1-0.3-1.2-1c0-0.2,0-0.3,0-0.4c0-1.1,0-2.2,0-3.3c0-0.3-0.1-0.4-0.3-0.3c-0.3,0-0.7,0-1.1,0
				c-0.2,0-0.3,0.1-0.3,0.3c0,1.5,0,3,0,4.5c0,1.1,0.7,1.8,1.9,1.8c0.9,0,1.7-0.2,2.5-0.9l0,0c0,0.2,0,0.2,0,0.3v0v0.3v0.3h1.7v-0.3
				v-0.2c0-1.6,0-3.2,0-4.7C32.5,68.8,32.6,68.2,32.4,68z"/>
		</g>
		<path id="XMLID_34_" class="st3" d="M41.4,68.2c0-0.3-0.1-0.4-0.3-0.4c-0.3,0-0.7,0-1,0c-0.4,0-0.4,0.1-0.4,0.4c0,1.6,0,3.1,0,4.7
			c0,0.4,0,0.8,0,1.1v0.2h1.7v-0.2V74c0-1,0-1.9,0-2.9C41.4,70.1,41.4,69.2,41.4,68.2z"/>
		<g id="XMLID_16_">
			<path id="XMLID_41_" class="st3" d="M66.4,72.2c0-0.7,0-1.4,0-2.2c0-1.4-0.9-2.4-2.2-2.6c-0.9-0.1-1.7,0-2.5,0.2
				c-1,0.3-1,0.3-0.6,1.3c0,0,0,0.1,0,0.1c0,0.3,0.2,0.4,0.5,0.2c0.6-0.3,1.3-0.4,2-0.3c0.8,0.1,1.2,0.5,1.2,1.3
				c-0.8-0.2-1.6-0.3-2.5-0.2c-0.9,0.2-1.6,0.5-2,1.5c-0.5,1.5,0.5,2.8,2.1,2.9c0.8,0,1.6-0.2,2.3-0.8V74v0.3v0.2H65h0.2h1.2
				L66.4,72.2L66.4,72.2z M64.7,72.3c-0.3,0.9-1.9,1.3-2.6,0.7c-0.4-0.4-0.3-1.1,0.2-1.4c0.3-0.2,0.7-0.2,1.1-0.2
				c0.3,0,0.5,0,0.8,0.1C64.8,71.5,64.9,71.7,64.7,72.3z"/>
		</g>
		<g id="XMLID_17_">
			<path id="XMLID_45_" class="st3" d="M82.4,67.7c-0.9,0-1.6,0.3-2.3,0.9c0-1,0-2,0-2.9c0-0.3-0.1-0.3-0.3-0.3c-0.3,0-0.7,0-1,0
				c-0.3,0-0.4,0.1-0.3,0.4c0,1.1,0,2.2,0,3.3c0,1.6,0,3.2,0,4.9c0,0.1,0,0.1,0,0.2v0.3h1.7v-0.3v-1.9l0-1.9c0-0.1,0-0.3,0.1-0.4
				c0.3-0.5,1.2-0.8,1.9-0.6c0.5,0.1,0.7,0.5,0.7,1.3c0,0.5,0,1.1,0,1.6l0,0v1c0,0.3,0,0.5,0,0.8c0,0,0,0.1,0,0.1v0.3h1.7v0
				c0-0.7,0-1.5,0-2.2c0-1.1,0-2.1,0-3.2C84,68.1,83.3,67.7,82.4,67.7z"/>
			<path id="XMLID_42_" class="st3" d="M82.4,67.7c-0.9,0-1.6,0.3-2.3,0.9c0-1,0-2,0-2.9c0-0.3-0.1-0.3-0.3-0.3c-0.3,0-0.7,0-1,0
				c-0.3,0-0.4,0.1-0.3,0.4c0,1.1,0,2.2,0,3.3c0,1.6,0,3.2,0,4.9c0,0.1,0,0.1,0,0.2v0.3h1.7v-0.3v-1.9l0-1.9c0-0.1,0-0.3,0.1-0.4
				c0.3-0.5,1.2-0.8,1.9-0.6c0.5,0.1,0.7,0.5,0.7,1.3c0,0.5,0,1.1,0,1.6l0,0v1c0,0.3,0,0.5,0,0.8c0,0,0,0.1,0,0.1v0.3h1.7v0
				c0-0.7,0-1.5,0-2.2c0-1.1,0-2.1,0-3.2C84,68.1,83.3,67.7,82.4,67.7z"/>
			<path id="XMLID_40_" class="st3" d="M82.4,67.7c-0.9,0-1.6,0.3-2.3,0.9c0-1,0-2,0-2.9c0-0.3-0.1-0.3-0.3-0.3c-0.3,0-0.7,0-1,0
				c-0.3,0-0.4,0.1-0.3,0.4c0,1.1,0,2.2,0,3.3c0,1.6,0,3.2,0,4.9c0,0.1,0,0.1,0,0.2v0.3h1.7v-0.3v-1.9l0-1.9c0-0.1,0-0.3,0.1-0.4
				c0.3-0.5,1.2-0.8,1.9-0.6c0.5,0.1,0.7,0.5,0.7,1.3c0,0.5,0,1.1,0,1.6l0,0v1c0,0.3,0,0.5,0,0.8c0,0,0,0.1,0,0.1v0.3h1.7v0
				c0-0.7,0-1.5,0-2.2c0-1.1,0-2.1,0-3.2C84,68.1,83.3,67.7,82.4,67.7z"/>
		</g>
	</g>
</g>
</svg>
