<?xml version="1.0" encoding="utf-8"?>
<!-- Generator: Adobe Illustrator 21.1.0, SVG Export Plug-In . SVG Version: 6.00 Build 0)  -->
<svg version="1.1" id="Capa_1" xmlns="http://www.w3.org/2000/svg" xmlns:xlink="http://www.w3.org/1999/xlink" x="0px" y="0px"
	 viewBox="0 0 100 100" style="enable-background:new 0 0 100 100;" xml:space="preserve">
<style type="text/css">
	.st0{fill:url(#SVGID_1_);}
	.st1{fill:#ED2517;}
</style>
<radialGradient id="SVGID_1_" cx="50" cy="50" r="91.5496" gradientTransform="matrix(1 0 0 -1 0 100)" gradientUnits="userSpaceOnUse">
	<stop  offset="0" style="stop-color:#FFFFFF"/>
	<stop  offset="0.2451" style="stop-color:#FBFBFB"/>
	<stop  offset="0.4836" style="stop-color:#EFEFEF"/>
	<stop  offset="0.7193" style="stop-color:#DCDCDC"/>
	<stop  offset="0.9521" style="stop-color:#C1C1C1"/>
	<stop  offset="1" style="stop-color:#BABABA"/>
</radialGradient>
<rect x="-41.5" y="-41.5" class="st0" width="183.1" height="183.1"/>
<g>
	<path class="st1" d="M23.4,40.2c-1,0-2.1,0-3.1,0c0,4.2,0,6.9,0,11.2c-1.3-4.1-2.6-6.8-4-11.2c-1.1,0-1.9,0-3,0
		c0,6.6,0,13.1,0,19.7c1-0.2,2.1-0.3,3.1-0.4c0-4.1,0-6.7,0-10.8c1.4,4,2.2,6.5,3.6,10.3c1-0.1,2.2-0.3,3.4-0.4
		C23.4,52.4,23.4,46.3,23.4,40.2"/>
	<path class="st1" d="M34.9,40.2c-2.9,0-5.7,0-8.5,0c0,6.1,0,12.1,0,18.2c2.9-0.3,5.7-0.5,8.6-0.7c0-0.8,0-2.2,0-3
		c-1.9,0.1-3.7,0.2-5.5,0.4c0-1.6,0-3,0-4.6c1.3,0,2.8,0,4.2,0c0-0.8,0-2.2,0-3.1c-1.4,0-2.8,0-4.2,0.1c0-1.6,0-2.5,0-4.1
		c0.8,0,1.7,0,2.5,0c0.2,0,0.3,0,0.5,0c0.2,0,0.3,0,0.5,0c0.7,0,1.4,0,2.1,0C34.9,42.3,34.9,41,34.9,40.2"/>
	<path class="st1" d="M46.4,40.2c-3.1,0-6.4,0-9.6,0c0,0.8,0,2.2,0,3c0.1,0,0.3,0,0.4,0c0.4,0,0.8,0,1.2,0c0.4,0,0.8,0,1.2,0
		c0.1,0,0.2,0,0.3,0c0,4.9,0,9.4,0,14.2c1,0,2.1-0.1,3.1-0.1c0-4.9,0-9.3,0-14.2c1,0,2.2,0,3.2,0C46.4,42.3,46.4,41,46.4,40.2"/>
	<path class="st1" d="M57,40.2c-2.9,0-5.7,0-8.6,0c0,5.7,0,11.4,0,17.1c0.4,0,0.7,0,1,0c0.7,0,1.4,0,2.1,0c0-2.4,0-4.6,0-7
		c0.2,0,0.4,0,0.5,0c0.4,0,0.8,0,1.2,0c0.4,0,0.8,0,1.2,0s0.8,0,1.2,0c0-0.8,0-2.2,0-3c-0.4,0-0.7,0-1.1,0c-0.5,0-0.8,0-1.3,0
		c-0.5,0-0.8,0-1.2,0c-0.2,0-0.3,0-0.5,0c0-1.6,0-2.4,0-4c0.4,0,0.7,0,1,0c0.4,0,0.7,0,1,0s0.7,0,1,0c0.8,0,1.7,0,2.5,0
		C57,42.3,57,41,57,40.2"/>
	<path class="st1" d="M59,40.2c0,5.7,0,11.5,0,17.2c2.7,0.1,5.6,0.2,8.3,0.4c0-0.8,0-2.2,0-3c-1.8-0.1-3.6-0.2-5.2-0.3
		c0-5,0-9.4,0-14.3C61.2,40.2,60,40.2,59,40.2"/>
	<path class="st1" d="M70,40.2c0,5.9,0,11.9,0,17.8c1,0.1,2.1,0.2,3.1,0.3c0-6,0-12.1,0-18.1C72,40.2,70.9,40.2,70,40.2"/>
	<path class="st1" d="M75.7,40.2c1.2,3,2.3,6,3.7,9.2c-1.3,3.1-2.6,6.1-3.9,9.1c1.1,0.1,2.2,0.3,3.3,0.4c0.7-1.9,1.5-3.4,2.2-5.3
		c0.7,2.1,1.5,3.7,2.2,5.8c1,0.1,2.4,0.4,3.6,0.5c-1.3-3.5-2.7-7.1-4-10.4c1.3-3.1,2.6-6,4-9.3c-1.1,0-2.2,0-3.4,0
		c-0.9,2.1-1.5,3.4-2.3,5.2c-0.7-2-1.2-3.3-2-5.2C77.9,40.2,76.8,40.2,75.7,40.2"/>
</g>
</svg>
