<?xml version="1.0" encoding="utf-8"?>
<!-- Generator: Adobe Illustrator 21.1.0, SVG Export Plug-In . SVG Version: 6.00 Build 0)  -->
<svg version="1.1" id="Capa_1" xmlns="http://www.w3.org/2000/svg" xmlns:xlink="http://www.w3.org/1999/xlink" x="0px" y="0px"
	 viewBox="0 0 100 100" style="enable-background:new 0 0 100 100;" xml:space="preserve">
<style type="text/css">
	.st0{fill:#301F1A;}
	.st1{fill:#FFFFFF;}
	.st2{fill:url(#SVGID_1_);}
</style>
<rect y="0.3" class="st0" width="100" height="100"/>
<g>
	<g>
		<path class="st1" d="M81.6,40.6v3.7h1.9v2c0,0-3.2,0-3.5,0c-0.3,0-5.5,1.6-5.5,7.3c0,5.6,5.1,6.9,5.5,7c0.6,0.2,6.9,0,6.9,0
			S86,59.5,86,57.8c0-1.7,1.5-2.7,1.5-2.7V40.6H81.6z M83.5,57.1h-2.7c0,0-2.2-0.6-2.2-3.6c0-2.4,2-3.7,2-3.7h2.9V57.1z"/>
	</g>
</g>
<polygon class="st1" points="53.6,46.2 53.6,57.2 51.9,57.2 51.9,60.6 57.7,60.6 57.7,46.2 "/>
<rect x="53.6" y="40.6" class="st1" width="4.1" height="3.7"/>
<path class="st1" d="M39,46.3v3.6h1.9v7.3H39v3.4h8.2v-3.4h-2v-5.2l1.8-1.9l0.4-0.1c0,0,0.7,0.9,1.6,1.1c0.8,0.2,2.6-0.2,2.6-2.4
	c0-2.2-2-2.4-3.2-2.3c-1.3,0.2-3.1,1.8-3.1,1.8l-0.5,0.6v-2.4H39z"/>
<path class="st1" d="M36.8,57.1v3.5c0,0-6.1,0.1-6.9,0c-0.6-0.1-5.9-1.1-5.9-7.2c0-6.5,5.7-7.5,8.1-7.2c4.9,0.7,6.9,6.4,3.4,7.2
	c-2.2,0.5-3.3-1.6-2.8-3.2c0.2-0.6-1-0.7-1.7-0.7c-0.9,0-3.1,0.7-3.1,3.9c0,3.1,2.9,3.7,2.9,3.7H36.8z"/>
<path class="st1" d="M19.6,49.3c0.8,0.5,4.4,2.8,2.6,7.3c-1.1,2.8-4.3,4.3-8.4,4c-2.8-0.2-6.1-2.4-6.1-4.7c0-0.7,0-2.2,1.9-2.8
	c1.1-0.4,3.6,0.3,3,3.5c-0.1,0.6,5.3,1.5,5.9-1.4c0.6-2.9-5.6-4.4-5.6-4.4c-0.3-0.1-4.3-1-4.3-5.5c0-6,6.7-6.2,8.5-6
	c5.2,0.6,7.3,6.2,3.4,7.1c-2.2,0.5-3.4-1.6-2.9-3.2c0.2-0.6-1.8-0.8-2.9-0.4c-0.9,0.3-2,1.3-2,2.4c0,1.5,3.5,2.6,3.5,2.6
	S18.8,48.8,19.6,49.3z"/>
<linearGradient id="SVGID_1_" gradientUnits="userSpaceOnUse" x1="89.8776" y1="60.6376" x2="89.8776" y2="55.5455">
	<stop  offset="0" style="stop-color:#00ADEE"/>
	<stop  offset="1" style="stop-color:#30F0FC"/>
</linearGradient>
<ellipse class="st2" cx="89.9" cy="58.1" rx="2.5" ry="2.5"/>
<g>
	<g>
		<path class="st1" d="M66.8,46.3H64v-5.7h-4.1v20H67c0,0,5.9-0.7,5.9-7.7C72.9,46,66.8,46.3,66.8,46.3z M66.8,57.1h-2.7v-7.3H67
			c0,0,2,1.3,2,3.7C69,56.5,66.8,57.1,66.8,57.1z"/>
	</g>
</g>
</svg>
