<?xml version="1.0" encoding="utf-8"?>
<!-- Generator: Adobe Illustrator 21.1.0, SVG Export Plug-In . SVG Version: 6.00 Build 0)  -->
<svg version="1.1" id="Capa_1" xmlns="http://www.w3.org/2000/svg" xmlns:xlink="http://www.w3.org/1999/xlink" x="0px" y="0px"
	 viewBox="0 0 100 100" style="enable-background:new 0 0 100 100;" xml:space="preserve">
<style type="text/css">
	.st0{fill:#59B366;}
	.st1{fill:#6C97D0;}
	.st2{fill-rule:evenodd;clip-rule:evenodd;fill:#1C1C1C;}
	.st3{fill:#FFFFFF;}
	.st4{fill-rule:evenodd;clip-rule:evenodd;fill:#FFFFFF;}
	.st5{fill:#F7F7F7;}
</style>
<g>
	<path class="st1" d="M-3.2,7.8c0-6.1,4.9-11,11-11h84.4c6.1,0,11,4.9,11,11v84.4c0,6.1-4.9,11-11,11H7.8c-6.1,0-11-4.9-11-11V7.8
		L-3.2,7.8z"/>
</g>
<g>
	<circle class="st2" cx="50" cy="42.2" r="20.5"/>
	<g>
		<ellipse transform="matrix(0.7068 -0.7074 0.7074 0.7068 -15.1829 47.741)" class="st3" cx="50" cy="42.2" rx="1.2" ry="1.2"/>
	</g>
	<path class="st4" d="M52.4,42.2c1.1-1.1,2.9-1.1,3.9,0c1.1,1.1,1.1,2.9,0,4l-2.6,2.6c-4.6,4.6-12.1,4.6-16.7,0s-4.6-12.1,0-16.7
		l6.5-6.5c1.1-1.1,2.9-1.1,3.9,0c1.1,1.1,1.1,2.9,0,4L41,36.1c-2.4,2.4-2.4,6.3,0,8.7c2.4,2.4,6.3,2.4,8.8,0L52.4,42.2z"/>
	<path class="st4" d="M47.5,42.2c-1.1,1.1-2.9,1.1-3.9,0c-1.1-1.1-1.1-2.9,0-4l2.6-2.6c4.6-4.6,12.1-4.6,16.7,0
		c4.6,4.6,4.6,12.1,0,16.7l-6.5,6.5c-1.1,1.1-2.9,1.1-3.9,0c-1.1-1.1-1.1-2.9,0-3.9l6.5-6.5c2.4-2.4,2.4-6.3,0-8.7
		c-2.4-2.4-6.3-2.4-8.7,0L47.5,42.2z"/>
	<path class="st5" d="M62.2,77.3v-4.9c0-0.7,0.3-1,0.9-1h0.6c0.6,0,0.7,0.1,0.9,0.6l1.1,2.7l1.1-2.7c0.2-0.5,0.4-0.6,0.9-0.6h0.6
		c0.6,0,1,0.3,1,1v4.9c0,0.6-0.2,1-0.8,1h-0.3c-0.6,0-0.8-0.3-0.8-1v-2.9l-0.7,2c-0.1,0.3-0.1,0.5-0.9,0.5c-0.8,0-0.8-0.2-0.9-0.5
		l-0.7-1.9v2.8c0,0.6-0.2,1-0.8,1H63C62.4,78.3,62.2,77.9,62.2,77.3 M59.3,75.7c0,0.7-0.5,1.2-1.3,1.2c-0.5,0-0.8-0.3-0.8-0.7
		c0-0.7,0.9-1,1.6-1h0.5L59.3,75.7L59.3,75.7z M58.1,71.2c-1.4,0-2.7,0.7-2.7,1.5c0,1.1,1.3,1,1.3,1c0.1-0.6,0.6-0.9,1.2-0.9
		c1,0,1.3,0.5,1.3,1.1h-0.5c-2.7,0-3.8,1.1-3.8,2.3c0,1.2,1,2,2.3,2c0.9,0,1.8-0.3,2-1c0.1,0.5,0.5,0.9,1.2,0.9
		c0.5,0,0.8-0.2,0.8-0.3v-4.2C61.4,72.2,60.2,71.2,58.1,71.2 M46,75.7c0,0.7-0.5,1.2-1.3,1.2c-0.5,0-0.8-0.3-0.8-0.7
		c0-0.7,0.9-1,1.6-1H46L46,75.7L46,75.7z M44.8,71.2c-1.4,0-2.7,0.7-2.7,1.5c0,1.1,1.3,1,1.3,1c0.1-0.6,0.6-0.9,1.2-0.9
		c1,0,1.3,0.5,1.3,1.1h-0.5c-2.7,0-3.8,1.1-3.8,2.3c0,1.2,1,2,2.3,2c0.9,0,1.8-0.3,2-1c0.1,0.5,0.5,0.9,1.2,0.9
		c0.5,0,0.8-0.2,0.8-0.3v-4.2C48.1,72.2,47,71.2,44.8,71.2 M48.7,77.4L48.7,77.4c0-0.7,0.2-0.9,0.6-1.3l2.6-2.9h-2.1
		c-0.6,0-0.9-0.2-0.9-0.8v-0.1c0-0.6,0.3-0.8,0.9-0.8h3.8c0.8,0,1.1,0.4,1.1,0.8v0.1c0,0.6-0.2,0.8-0.6,1.2l-2.6,2.9h2.3
		c0.6,0,0.9,0.2,0.9,0.8v0.1c0,0.6-0.3,0.8-0.9,0.8h-4C49,78.2,48.7,77.8,48.7,77.4 M34.8,77.3v-5c0-0.7,0.3-1,0.9-1H36
		c0.6,0,0.9,0.3,0.9,1v1.6h2.2v-1.6c0-0.7,0.3-1,0.9-1h0.3c0.6,0,0.9,0.3,0.9,1v5c0,0.6-0.3,1-0.9,1H40c-0.6,0-0.9-0.3-0.9-1v-1.6
		h-2.2v1.6c0,0.6-0.3,1-0.9,1h-0.3C35.1,78.3,34.8,77.9,34.8,77.3 M28.3,77c0-0.5,0.6-1.1,0.7-1c0.4,0.4,1.3,0.8,2,0.8
		c0.7,0,0.9-0.2,0.9-0.5c0-0.4-0.5-0.4-1.2-0.6c-1.1-0.2-2.3-0.7-2.3-2.1c0-1.4,1-2.3,2.9-2.3c1.8,0,2.6,0.6,2.6,1.3
		c0,0.6-0.7,1.1-0.7,1.1c-0.5-0.4-1.2-0.7-1.8-0.7c-0.6,0-0.9,0.2-0.9,0.5c0,0.4,0.5,0.4,1.3,0.5c1.3,0.3,2.4,0.9,2.4,2.1
		c0,1.5-1,2.3-3.1,2.3C29,78.4,28.3,77.7,28.3,77 M70.7,72.1h0.1c0.1,0,0.1,0,0.1-0.1c0-0.1,0-0.1-0.1-0.1h-0.1V72.1z M71,72.5
		l-0.2-0.2h-0.1v0.2c0,0.1,0,0.1-0.1,0.1h0c-0.1,0-0.1,0-0.1-0.1v-0.6c0-0.1,0-0.1,0.1-0.1h0.3c0.2,0,0.4,0.1,0.4,0.3
		c0,0.1-0.1,0.2-0.2,0.3l0.2,0.3c0,0-0.1,0.1-0.1,0.1C71.1,72.6,71,72.6,71,72.5 M71.5,72.2c0-0.4-0.3-0.7-0.7-0.7
		c-0.4,0-0.7,0.3-0.7,0.7c0,0.4,0.3,0.7,0.7,0.7C71.3,72.9,71.5,72.6,71.5,72.2 M70,72.2c0-0.5,0.3-0.8,0.8-0.8
		c0.5,0,0.8,0.3,0.8,0.8c0,0.5-0.3,0.8-0.8,0.8C70.4,73,70,72.7,70,72.2"/>
</g>
</svg>
