<?xml version="1.0" encoding="utf-8"?>
<!-- Generator: Adobe Illustrator 21.1.0, SVG Export Plug-In . SVG Version: 6.00 Build 0)  -->
<svg version="1.1" id="Capa_1" xmlns="http://www.w3.org/2000/svg" xmlns:xlink="http://www.w3.org/1999/xlink" x="0px" y="0px"
	 viewBox="0 0 100 100" style="enable-background:new 0 0 100 100;" xml:space="preserve">
<style type="text/css">
	.st0{fill:#FFFFFF;}
	.st1{fill:#7BB765;}
</style>
<rect class="st0" width="100" height="100"/>
<g>
	<circle class="st1" cx="22" cy="50" r="12"/>
	<path class="st1" d="M41.8,44.4c0.4,0,2-0.1,3.9,1.3c0.1,0.1,0.1,0.2,0,0.3l-0.9,1.3c-0.1,0.1-0.2,0.1-0.3,0
		c-0.2-0.1-0.5-0.3-0.8-0.5c-0.6-0.3-1.3-0.5-1.9-0.5s-1.7,0.2-1.7,1.2c0,0.8,0.7,1.1,2.9,1.6c1.4,0.4,3.1,1.1,3.1,3.2
		c0,2-1.7,3.3-4,3.3c-1.4,0-3.3-0.5-4.5-1.7c-0.1-0.1-0.1-0.2,0-0.3l1.1-1.2c0.1-0.1,0.2-0.1,0.3,0c0.4,0.4,1.6,1.3,3.2,1.3
		c1.9,0,1.8-1.1,1.8-1.3c0-0.4-0.3-0.9-1.2-1.1c-0.9-0.3-3.3-0.7-4.2-1.7C38.1,49,38,48.3,38,47.7C38.1,46.5,38.8,44.4,41.8,44.4z"
		/>
	<path class="st1" d="M51.6,47c-1.7,0-2.6,1.2-2.6,1.2v-0.9c0-0.1-0.1-0.2-0.2-0.2h-1.7c-0.1,0-0.2,0.1-0.2,0.2v10.4
		c0,0.1,0.1,0.2,0.2,0.2h1.7c0.1,0,0.2-0.1,0.2-0.2v-3.2c0,0,0.8,1.1,2.7,1.1c1.5,0,3.8-1.2,3.8-4.3C55.5,48.3,53.3,47,51.6,47z
		 M51.2,53.9c-1.2,0-2.2-1-2.2-2.5c0-0.9,0.6-2.5,2.2-2.5c1.6,0,2.2,1.3,2.2,2.5C53.4,52.5,52.7,53.9,51.2,53.9z"/>
	<path class="st1" d="M60.5,47c-2.7,0-4.4,2.2-4.4,4.4c0,2.3,1.8,4.3,4.4,4.3c2.6,0,4.4-2.1,4.4-4.3C65,49.1,63.3,47,60.5,47z
		 M60.6,53.9c-1.1,0-2.3-0.9-2.3-2.5c0-1.5,1.1-2.5,2.3-2.5c0.9,0,2.3,0.8,2.3,2.5C62.8,53.1,61.7,53.9,60.6,53.9z"/>
	<path class="st1" d="M70.5,48.9v-1.5c0-0.1-0.1-0.2-0.2-0.2h-2v-2c0-0.1-0.1-0.2-0.2-0.2h-1.7c-0.1,0-0.2,0.1-0.2,0.2v2h-0.8
		c-0.1,0-0.2,0.1-0.2,0.2v1.5c0,0.1,0.1,0.2,0.2,0.2h0.8c0,0,0,3.2,0,4.2s0.4,2.4,2.3,2.4c0.9,0,1.6-0.3,1.9-0.4
		c0.1,0,0.1-0.1,0.1-0.2v-1.4c0-0.1-0.1-0.2-0.3-0.1c-0.2,0.1-0.5,0.3-1,0.3c-0.9,0-0.9-0.6-0.9-1s0-3.7,0-3.7h2
		C70.4,49.1,70.5,49,70.5,48.9z"/>
	<circle class="st1" cx="72.4" cy="44.9" r="1.3"/>
	<path class="st1" d="M72.4,55.5L72.4,55.5c-0.6,0-1.1-0.5-1.1-1.1v-6.2c0-0.6,0.5-1.1,1.1-1.1l0,0c0.6,0,1.1,0.5,1.1,1.1v6.2
		C73.5,55.1,73,55.5,72.4,55.5z"/>
	<path class="st1" d="M75.3,49.1h-0.8c-0.1,0-0.2-0.1-0.2-0.2v-1.5c0-0.1,0.1-0.2,0.2-0.2h0.8c0,0,0-0.2,0-0.5s0.1-2.6,2.6-2.6
		c1.3,0,1.7,0.3,1.7,0.3s0,1.4,0,1.5s-0.1,0.3-0.2,0.2c-0.2-0.1-0.6-0.2-1-0.2s-0.9,0.2-0.9,0.9c0,0.2,0,0.4,0,0.4h3.1
		c0.1,0,0.2,0.1,0.2,0.1l2.2,5.6l1.9-5.6c0-0.1,0.1-0.1,0.2-0.1H87c0.1,0,0.2,0.1,0.1,0.2c-0.4,1.2-3,7.7-3.3,8.5
		c-0.4,0.9-1,2.2-2.7,2.2c-1,0-1.7-0.3-1.9-0.5C79,57.5,79,57.4,79,57.3l0.6-1.3c0-0.1,0.1-0.1,0.1,0c0.2,0.1,0.6,0.3,1.1,0.3
		c0.7,0,1-0.8,1-0.8l-2.7-6.3h-1.7v6.3c0,0.1-0.1,0.2-0.2,0.2h-1.7c-0.1,0-0.2-0.1-0.2-0.2L75.3,49.1z"/>
	<g>
		<path class="st1" d="M88.1,47.8h0.6c0.2,0,0.3,0,0.4,0.1s0.1,0.2,0.1,0.3l0,0c0,0.2-0.1,0.4-0.3,0.4l0.3,0.5h-0.4l-0.3-0.4l0,0
			h-0.2v0.4H88v-1.3H88.1z M88.7,48.4c0.1,0,0.2-0.1,0.2-0.2l0,0c0-0.1-0.1-0.2-0.2-0.2h-0.3v0.4H88.7z"/>
	</g>
	<g>
		<path class="st1" d="M88.6,49.8c-0.7,0-1.3-0.6-1.3-1.3s0.6-1.3,1.3-1.3s1.3,0.6,1.3,1.3C90,49.2,89.4,49.8,88.6,49.8z M88.6,47.3
			c-0.6,0-1.2,0.5-1.2,1.2c0,0.6,0.5,1.2,1.2,1.2s1.2-0.5,1.2-1.2C89.8,47.8,89.3,47.3,88.6,47.3z"/>
	</g>
	<g>
		<path class="st0" d="M26.8,55.7c-0.1,0-0.3,0-0.4-0.1c-4.7-2.8-10.3-1.2-10.4-1.2c-0.4,0.1-0.9-0.1-1-0.5s0.1-0.9,0.5-1
			c0.3-0.1,6.3-1.9,11.6,1.3c0.4,0.2,0.5,0.7,0.3,1.1C27.4,55.6,27.1,55.7,26.8,55.7z"/>
	</g>
	<g>
		<path class="st0" d="M28.2,52.5c-0.2,0-0.3,0-0.5-0.1C21.8,49,15.8,51,15.7,51c-0.5,0.2-1-0.1-1.2-0.6s0.1-1,0.6-1.2
			c0.3-0.1,6.8-2.3,13.5,1.6c0.4,0.3,0.6,0.8,0.3,1.3C28.8,52.3,28.5,52.5,28.2,52.5z"/>
	</g>
	<g>
		<path class="st0" d="M29.7,48.8c-0.2,0-0.4,0-0.5-0.1c-6.8-3.6-13.8-1.4-13.9-1.4c-0.6,0.2-1.2-0.1-1.4-0.7
			c-0.2-0.6,0.1-1.2,0.7-1.4c0.3-0.1,8-2.5,15.7,1.6c0.6,0.3,0.8,1,0.5,1.5C30.5,48.6,30.1,48.8,29.7,48.8z"/>
	</g>
</g>
</svg>
