<?xml version="1.0" encoding="utf-8"?>
<!-- Generator: Adobe Illustrator 21.1.0, SVG Export Plug-In . SVG Version: 6.00 Build 0)  -->
<svg version="1.1" id="Capa_1" xmlns="http://www.w3.org/2000/svg" xmlns:xlink="http://www.w3.org/1999/xlink" x="0px" y="0px"
	 viewBox="0 0 168 64" style="enable-background:new 0 0 168 64;" xml:space="preserve">
<style type="text/css">
	.st0{fill:url(#SVGID_1_);}
	.st1{fill:url(#SVGID_2_);}
	.st2{fill:#FFFFFF;}
</style>
<g>
	<g>
		<g>
			<linearGradient id="SVGID_1_" gradientUnits="userSpaceOnUse" x1="9.5473" y1="53.4866" x2="45.4196" y2="17.6143">
				<stop  offset="0" style="stop-color:#849DCF"/>
				<stop  offset="0.3324" style="stop-color:#8CB4D9"/>
				<stop  offset="1" style="stop-color:#9EC8BF"/>
			</linearGradient>
			<path class="st0" d="M27.9,61.4c-8.7,0-16.6-4.3-21.1-11.6C3.1,44,3,38.7,3,37.7C1.4,15.7,26.4,4.4,27.5,3.9l2.9-1.3v11.6
				C44,15.1,49,24.5,50.7,30.2c1,3.3,1.3,7,0.7,10.5c-0.6,3.5-1.7,6.8-3.5,9.7C43.7,57.3,36.2,61.4,27.9,61.4
				C27.9,61.4,27.9,61.4,27.9,61.4z M26.2,9.3C20,12.8,6,22.5,7.1,37.5l0,0.1l0,0.1c0,0-0.1,4.7,3.1,9.8c3.8,6.1,10.4,9.7,17.6,9.7
				c0,0,0,0,0,0c6.9,0,12.9-3.3,16.5-9c1.5-2.4,2.5-5.1,2.9-8.1c0.5-2.9,0.3-5.9-0.6-8.6c-1.9-6-6.6-13.1-18.4-13.1h-2.1V9.3z"/>
		</g>
		<g>
			<linearGradient id="SVGID_2_" gradientUnits="userSpaceOnUse" x1="34.2224" y1="46.3857" x2="70.0947" y2="10.5134">
				<stop  offset="0" style="stop-color:#849DCF"/>
				<stop  offset="0.3324" style="stop-color:#8CB4D9"/>
				<stop  offset="1" style="stop-color:#9EC8BF"/>
			</linearGradient>
			<path class="st1" d="M49.2,61.4V49.8c-13.6-0.9-18.6-10.3-20.3-16c-1-3.3-1.3-7-0.7-10.5c0.6-3.5,1.7-6.8,3.5-9.7
				c4.3-6.9,11.8-11,20-11c0,0,0,0,0,0c8.7,0,16.6,4.3,21.1,11.6c3.6,5.8,3.8,11.1,3.8,12c1.6,22.1-23.4,33.4-24.5,33.9L49.2,61.4z
				 M51.8,6.8C51.8,6.8,51.8,6.8,51.8,6.8c-7,0-13,3.3-16.5,9c-1.5,2.4-2.5,5.1-2.9,8.1c-0.5,2.9-0.3,5.9,0.6,8.6
				c1.9,6,6.6,13.1,18.4,13.1h2.1v9.1c6.3-3.6,20.2-13.3,19.1-28.3l0-0.1l0-0.1c0,0,0.1-4.7-3.1-9.8C65.6,10.4,59,6.8,51.8,6.8z"/>
		</g>
	</g>
	<g>
		<path class="st2" d="M103.3,40.2v2.9H88.9V21.2h2.9v19H103.3z"/>
		<path class="st2" d="M106.7,28c1.8-0.8,3.8-1.2,5.8-1.2s3.7,0.6,4.8,1.8c1.1,1.2,1.7,2.7,1.7,4.4v10.1h-2.5l-0.3-2H116
			c-1.5,1.5-3.4,2.3-5.8,2.3c-1.4,0-2.6-0.4-3.6-1.3c-1-0.9-1.5-2-1.5-3.5s0.6-2.7,1.8-3.6c1.2-0.9,3-1.4,5.4-1.4h3.8v-0.3
			c0-1.4-0.3-2.4-1-3c-0.7-0.6-1.9-0.9-3.5-0.9c-1.7,0-3.2,0.4-4.7,1.1h-0.2V28z M116.1,38.5v-2.6h-3.4c-3.2,0-4.7,0.8-4.7,2.5
			s1.1,2.5,3.3,2.5c0.9,0,1.8-0.2,2.7-0.7C114.8,39.7,115.5,39.2,116.1,38.5z"/>
		<path class="st2" d="M132.5,26.8c1.7,0,3.1,0.6,4.1,1.8c1,1.2,1.5,2.6,1.5,4.4v10.2h-2.9v-9.8c0-2.5-1.1-3.8-3.5-3.8
			c-1.8,0-3.5,1-5.1,3v10.7h-2.9v-16h2.5l0.3,2v0.5h0.1C128.4,27.7,130.3,26.8,132.5,26.8z"/>
		<path class="st2" d="M151.6,26.8c1.7,0,3.1,0.6,4.1,1.8c1,1.2,1.5,2.6,1.5,4.4v10.2h-2.9v-9.8c0-2.5-1.1-3.8-3.5-3.8
			c-1.8,0-3.5,1-5.1,3v10.7h-2.9v-16h2.5l0.3,2v0.5h0.1C147.5,27.7,149.4,26.8,151.6,26.8z"/>
		<path class="st2" d="M165.1,20.6v3.1H162v-3.1H165.1z M162.1,43.1v-16h2.9v16H162.1z"/>
	</g>
</g>
</svg>
