<?xml version="1.0" encoding="utf-8"?>
<!-- Generator: Adobe Illustrator 21.1.0, SVG Export Plug-In . SVG Version: 6.00 Build 0)  -->
<svg version="1.1" id="Capa_1" xmlns="http://www.w3.org/2000/svg" xmlns:xlink="http://www.w3.org/1999/xlink" x="0px" y="0px"
	 viewBox="0 0 78 50" style="enable-background:new 0 0 78 50;" xml:space="preserve">
<style type="text/css">
	.st0{fill:#808080;}
</style>
<g>
	<g>
		<path class="st0" d="M72.9,28.2H7.3c-1.8,0-3.2-1.4-3.2-3.2s1.4-3.2,3.2-3.2h65.6c1.8,0,3.2,1.4,3.2,3.2S74.7,28.2,72.9,28.2z"/>
	</g>
	<g>
		<g>
			<path class="st0" d="M30.6,1.3L30.6,1.3c1.2,1.3,1.1,3.3-0.2,4.5L12.3,22.7c-1.4,1.3-1.4,3.4,0,4.7l18.1,16.9
				c1.3,1.2,1.4,3.2,0.2,4.5l0,0c-1.2,1.3-3.2,1.4-4.5,0.2L2.9,27.3c-1.4-1.3-1.4-3.4,0-4.7L26.1,1.1C27.4-0.1,29.4,0,30.6,1.3z"/>
		</g>
	</g>
</g>
</svg>
